<?xml version="1.0" standalone="no"?>
<!DOCTYPE svg PUBLIC "-//W3C//DTD SVG 20010904//EN"
 "http://www.w3.org/TR/2001/REC-SVG-20010904/DTD/svg10.dtd">
<svg version="1.0" xmlns="http://www.w3.org/2000/svg"
 width="917.000000pt" height="932.000000pt" viewBox="0 0 917.000000 932.000000"
 preserveAspectRatio="xMidYMid meet">
<metadata>
Created by potrace 1.16, written by Peter Selinger 2001-2019
</metadata>
<g transform="translate(0.000000,932.000000) scale(0.100000,-0.100000)"
fill="#000000" stroke="none">
<path d="M1 8603 c1 -395 4 -707 8 -694 4 14 12 26 19 29 10 3 10 -2 0 -25 -6
-15 -15 -33 -19 -38 -4 -6 -7 -68 -8 -138 0 -126 0 -128 21 -121 18 5 19 4 7
-9 -8 -8 -17 -13 -22 -10 -8 5 -9 -782 0 -791 3 -3 12 -1 19 5 13 11 8 39 -10
51 -7 5 -6 8 3 8 7 0 11 6 7 15 -3 8 -2 15 2 15 4 0 12 -16 18 -35 10 -33 9
-38 -17 -66 -20 -22 -29 -42 -29 -65 0 -19 4 -34 8 -34 4 0 8 -9 8 -19 0 -11
-4 -17 -9 -14 -4 2 -7 -72 -5 -166 2 -94 6 -171 10 -171 7 0 2 -89 -7 -124 -6
-21 -6 -21 9 -2 9 11 16 26 16 34 0 7 5 10 12 6 8 -5 9 -2 4 11 -12 33 -18
215 -7 216 6 1 16 2 23 3 7 0 15 12 18 26 4 17 8 21 14 12 4 -6 12 -12 18 -12
6 0 2 10 -9 23 -36 40 -39 51 -11 44 20 -5 29 -2 42 18 9 14 21 23 25 20 10
-5 31 47 31 75 0 10 7 20 15 24 8 3 15 17 15 31 0 16 4 24 10 20 6 -4 8 -16 4
-27 -3 -11 -7 -26 -9 -32 -1 -6 -10 -29 -20 -51 -9 -22 -18 -56 -19 -77 0 -20
-5 -35 -11 -35 -5 1 -10 -8 -9 -20 0 -12 -3 -20 -8 -17 -4 3 -8 -5 -9 -18 0
-13 -2 -41 -5 -63 -3 -29 -2 -36 6 -25 8 13 10 13 10 -2 0 -9 -4 -20 -10 -23
-5 -3 -10 -11 -10 -16 0 -6 5 -7 12 -3 8 5 9 2 5 -10 -4 -10 -7 -21 -7 -24 0
-4 -5 0 -10 8 -8 13 -10 12 -11 -5 -1 -11 -1 -26 0 -33 3 -18 -51 -91 -69 -93
-8 -1 -20 -1 -27 0 -14 2 -18 -5 -27 -41 -4 -17 -2 -28 4 -28 5 0 10 7 10 15
0 8 5 15 10 15 6 0 10 -5 10 -10 0 -6 6 -5 14 2 7 7 11 19 8 27 -4 11 -1 13
13 8 21 -9 45 9 45 34 0 10 9 23 20 29 11 6 23 22 26 35 3 14 11 25 16 25 7 0
7 4 0 13 -12 15 -1 103 13 100 5 -1 11 -7 13 -15 2 -9 0 -8 -7 2 -9 12 -11 11
-11 -7 0 -26 7 -28 34 -8 10 8 23 12 28 9 5 -3 15 0 23 6 22 19 20 -11 -4 -41
-10 -13 -17 -28 -15 -34 1 -5 5 -22 8 -37 4 -16 13 -28 21 -28 8 0 15 -7 15
-16 0 -14 1 -14 16 0 8 9 20 16 25 16 5 0 9 7 9 15 0 7 8 19 18 24 15 10 15
11 -5 17 -13 3 -23 8 -23 11 0 11 26 29 38 25 9 -3 10 3 3 22 -9 21 -8 24 7
19 9 -3 3 8 -15 27 -34 33 -41 50 -22 50 6 0 13 -9 16 -20 7 -28 22 -25 16 3
-3 16 -2 18 5 8 7 -9 12 -10 16 -2 4 6 13 8 19 5 12 -7 -30 45 -48 59 -6 4 1
17 18 32 15 13 27 28 27 33 0 5 10 12 23 16 18 5 19 8 8 15 -11 7 -21 2 -38
-17 -13 -15 -23 -22 -23 -17 -1 6 -7 -1 -14 -14 -10 -18 -14 -20 -19 -8 -7 19
2 57 14 57 5 0 9 -5 9 -12 0 -6 2 -9 5 -6 8 7 -5 38 -16 38 -5 0 -18 -14 -28
-31 l-18 -30 -5 25 c-4 18 -1 26 9 26 8 0 12 4 8 9 -3 6 2 14 11 19 11 6 15
17 11 32 -5 19 -2 21 19 17 19 -3 24 0 24 15 0 11 4 17 9 14 10 -6 25 24 16
32 -3 3 -5 0 -5 -5 0 -6 -8 -10 -17 -9 -14 2 -18 12 -17 47 0 24 4 56 8 70 6
20 3 28 -10 33 -14 5 -15 4 -4 -8 10 -12 8 -21 -8 -43 -10 -15 -17 -34 -15
-40 6 -18 -14 -16 -20 1 -3 7 0 19 6 25 8 8 8 14 -2 24 -10 10 -11 9 -6 -5 5
-11 2 -18 -5 -18 -9 0 -11 10 -5 38 4 20 7 45 8 55 1 9 5 17 9 17 13 0 9 30
-4 30 -8 0 -6 5 4 11 10 5 15 16 11 25 -7 19 44 74 63 67 8 -3 14 0 14 6 0 18
-32 12 -57 -11 -20 -18 -23 -19 -23 -5 0 9 5 17 10 17 6 0 10 4 10 10 0 5 -6
7 -14 4 -9 -3 -16 5 -21 23 -4 17 -2 29 4 31 6 2 11 9 11 15 0 8 -3 8 -11 0
-6 -6 -18 -9 -25 -6 -17 6 -17 2 -4 -32 8 -20 6 -29 -10 -45 -11 -11 -20 -26
-20 -32 0 -9 4 -8 10 2 9 13 10 13 10 0 1 -8 6 -4 12 10 10 24 10 24 18 5 4
-11 3 -26 -3 -33 -8 -10 -7 -16 2 -21 10 -6 9 -10 -4 -15 -10 -3 -14 -13 -11
-23 3 -10 -1 -36 -10 -58 -8 -22 -17 -48 -21 -57 -6 -20 -19 -23 -28 -8 -3 6
0 13 9 16 8 3 13 11 10 19 -3 7 1 19 9 27 12 12 13 17 1 33 -8 10 -14 36 -14
58 0 23 -4 36 -10 32 -6 -3 -10 2 -10 12 0 12 -3 14 -8 6 -5 -8 -13 -9 -22 -3
-19 12 -33 13 -26 2 3 -5 -1 -9 -9 -9 -20 0 -19 16 1 24 12 4 13 7 3 14 -8 4
-10 12 -5 16 4 4 13 1 19 -8 8 -11 18 -14 32 -8 18 7 18 8 -4 8 -20 1 -21 3
-11 16 12 15 4 20 -22 16 -4 0 -5 6 -2 14 4 8 1 15 -4 15 -6 0 -12 -6 -15 -12
-2 -7 -3 -5 -2 5 2 9 -3 17 -11 17 -8 0 -14 -5 -14 -12 0 -6 -2 -9 -5 -6 -3 3
-2 15 3 28 8 20 10 21 24 7 9 -9 18 -13 22 -10 3 4 6 1 6 -6 0 -7 4 -9 10 -6
5 3 10 0 10 -8 0 -8 7 -18 16 -21 21 -8 34 -8 33 2 -5 31 3 92 11 87 6 -3 10
-1 10 4 0 6 -7 11 -15 11 -10 0 -15 -10 -15 -30 0 -20 -5 -30 -15 -30 -8 0
-15 5 -15 11 0 5 4 7 10 4 6 -3 7 1 4 10 -5 12 -9 13 -21 4 -11 -10 -13 -9
-11 2 2 8 -4 13 -15 13 -13 -2 -16 3 -11 18 4 13 1 24 -7 29 -12 7 -12 9 -1 9
8 0 16 -9 19 -20 3 -11 9 -20 14 -20 12 0 11 4 -3 35 -15 33 -51 31 -56 -3 -5
-31 -22 -17 -22 18 0 23 -3 27 -20 23 -14 -4 -20 0 -20 11 0 8 6 13 12 11 7
-3 20 0 28 5 13 8 13 13 2 31 -7 11 -10 24 -6 27 4 4 9 1 11 -5 7 -20 22 -15
16 6 -3 11 5 29 20 45 17 18 23 34 20 49 -5 22 -5 22 10 2 11 -15 12 -22 4
-28 -9 -6 -9 -10 0 -14 7 -2 11 -14 9 -26 -1 -12 -1 -16 1 -9 3 7 8 10 13 7 4
-2 10 10 14 28 4 18 10 27 14 21 4 -7 15 -8 27 -3 17 6 17 8 3 8 -18 1 -26 31
-9 31 16 0 66 -30 67 -40 1 -5 2 -19 3 -30 1 -25 33 -27 52 -3 12 15 12 16 -5
10 -12 -5 -23 -3 -28 5 -13 22 -9 29 12 18 16 -9 20 -8 21 7 0 16 1 16 9 -2 9
-21 10 -21 15 10 1 11 6 28 10 38 4 9 3 17 -3 17 -6 0 -8 9 -5 21 3 11 11 18
18 15 8 -3 16 2 19 10 10 26 7 36 -8 31 -10 -4 -13 -1 -10 8 3 8 11 13 16 12
6 -1 11 8 13 20 1 13 5 26 10 30 4 5 5 -19 1 -52 -6 -53 -5 -58 8 -42 8 11 17
14 20 8 4 -5 2 -13 -4 -16 -6 -4 -8 -16 -4 -27 5 -17 3 -20 -10 -15 -17 7 -47
-38 -39 -60 2 -6 -1 -14 -6 -18 -6 -3 -11 -16 -10 -28 0 -22 0 -22 10 1 5 13
14 20 20 16 8 -5 8 -9 -1 -14 -14 -9 -7 -40 9 -40 5 0 13 5 17 12 5 7 3 8 -6
3 -13 -8 -9 17 10 60 5 11 11 37 15 58 3 20 11 37 17 37 6 0 8 11 4 28 -6 26
-6 26 9 7 9 -11 13 -30 10 -45 -3 -14 0 -32 6 -40 8 -12 9 -11 4 7 -5 17 1 24
26 37 l32 16 -6 -36 c-6 -36 -6 -36 13 -19 12 11 20 13 20 7 0 -7 -4 -12 -10
-12 -5 0 -7 -7 -4 -15 3 -8 2 -20 -2 -26 -5 -9 -10 -6 -15 9 -10 26 -18 27
-45 7 -18 -15 -18 -15 6 -12 14 2 19 2 12 0 -19 -7 -14 -24 6 -21 11 2 17 -3
16 -14 -3 -63 -5 -70 -24 -75 -11 -3 -20 -9 -20 -14 0 -5 -7 -9 -15 -9 -8 0
-15 -4 -15 -9 0 -14 26 -32 35 -23 5 4 5 -2 0 -13 -4 -11 -15 -45 -25 -75 -10
-30 -30 -79 -45 -108 -15 -30 -25 -56 -22 -58 7 -7 87 152 87 173 0 10 4 23 9
29 5 5 14 27 20 49 7 22 17 49 22 60 5 11 20 56 33 100 23 80 38 100 44 57 3
-17 8 -21 22 -17 10 3 21 1 25 -5 6 -10 -15 -15 -44 -10 -11 1 -12 -2 -4 -12
18 -21 13 -71 -10 -95 -21 -23 -11 -33 11 -11 9 9 12 8 12 -4 0 -9 -7 -18 -15
-22 -8 -3 -15 -10 -15 -16 0 -6 5 -8 12 -4 8 5 9 2 5 -9 -6 -16 -4 -16 26 0
17 9 36 17 40 18 4 0 12 7 17 15 8 12 10 11 10 -7 0 -13 4 -23 10 -23 6 0 8
16 5 38 -4 29 0 44 15 60 11 12 20 28 20 35 0 8 9 17 19 20 10 2 27 22 37 43
9 22 20 44 23 49 2 6 -3 4 -12 -4 -24 -19 -32 -8 -11 14 16 16 16 18 1 27 -21
11 -22 25 -2 45 12 12 13 18 4 29 -7 9 -8 14 -1 14 6 0 13 8 15 18 2 9 3 7 2
-5 -1 -13 2 -23 6 -23 10 0 13 27 10 78 -2 22 2 32 12 32 15 0 16 7 33 118 3
23 10 42 15 42 5 0 9 14 9 31 0 17 4 28 10 24 5 -3 6 -13 3 -22 -4 -11 -3 -14
5 -9 7 4 12 2 12 -3 0 -6 -4 -11 -9 -11 -4 0 -13 -19 -19 -42 -31 -118 -44
-177 -48 -218 -5 -49 -32 -193 -41 -224 -3 -12 -1 -16 6 -12 6 4 11 18 11 31
0 13 5 27 10 30 6 4 10 14 9 23 -3 16 7 79 17 114 3 9 11 15 18 12 16 -6 17
47 1 58 -5 4 -6 10 -2 14 3 4 13 1 21 -5 12 -10 15 -9 13 7 0 12 -6 18 -14 15
-7 -3 -13 2 -13 11 0 9 6 13 14 10 11 -4 13 0 9 15 -6 23 12 76 35 103 8 10
12 27 9 38 -4 17 -3 19 9 9 11 -9 14 -8 14 4 0 9 -4 19 -10 22 -5 3 -10 11
-10 16 0 6 5 7 11 3 8 -5 10 1 7 20 -3 14 -1 26 4 26 6 0 7 7 4 16 -3 8 -2 12
4 9 6 -3 10 4 11 17 0 13 2 32 5 43 2 11 5 32 7 47 1 16 7 28 14 28 6 0 15 5
19 12 5 7 3 8 -6 3 -10 -6 -11 -4 -6 11 5 10 11 27 13 37 3 9 9 17 14 17 5 0
9 5 9 11 0 6 -9 8 -20 4 -24 -8 -25 -2 -4 30 14 21 14 24 -3 35 -11 7 -14 13
-7 16 7 3 10 21 7 47 -4 31 -1 46 11 56 22 19 20 34 -4 28 -11 -3 -20 -1 -20
4 0 5 5 9 11 9 13 0 38 30 38 45 0 6 -6 2 -13 -8 -8 -11 -17 -14 -20 -8 -4 5
-2 13 4 16 8 5 7 11 -1 21 -9 11 -6 18 12 34 15 12 20 23 14 27 -5 5 -12 17
-13 28 -2 11 -8 22 -13 23 -12 5 -12 39 1 47 6 3 7 -1 4 -9 -3 -9 0 -22 8 -29
12 -12 14 -6 14 39 1 49 0 52 -13 37 -13 -16 -13 -15 -1 7 9 15 13 40 10 63
-2 22 0 37 6 37 7 0 8 11 1 32 -11 41 -8 43 25 13 15 -14 31 -25 37 -25 5 0 9
-5 9 -11 0 -8 -6 -7 -17 2 -16 13 -17 12 -5 -3 9 -11 10 -22 4 -35 -5 -10 -6
-27 -2 -38 4 -11 6 -47 4 -80 -2 -40 0 -55 6 -45 5 8 12 11 16 7 4 -3 2 -12
-3 -19 -6 -7 -13 -32 -16 -56 -4 -37 -3 -43 11 -40 12 2 17 14 18 38 1 19 6
36 12 38 7 2 6 12 -4 30 -9 17 -10 30 -4 36 14 14 12 26 -2 21 -9 -4 -13 5
-14 26 -1 25 2 30 17 26 11 -3 19 -1 19 4 0 5 -6 9 -12 10 -7 0 -5 4 5 8 17 6
17 8 3 20 -11 9 -16 10 -16 2 0 -6 -4 -11 -10 -11 -5 0 -6 9 -2 23 4 12 7 38
6 57 -2 35 14 63 47 81 14 7 16 3 11 -39 -5 -53 -10 -62 -21 -43 -7 10 -9 10
-14 -2 -3 -9 1 -18 10 -22 17 -6 33 10 33 33 0 10 20 17 43 13 4 0 7 6 7 14 0
8 5 15 11 15 7 0 10 -13 7 -34 -2 -19 0 -32 4 -30 4 3 8 -1 8 -8 0 -9 3 -9 10
2 8 12 10 11 10 -7 0 -13 -4 -23 -10 -23 -5 0 -7 -7 -4 -15 4 -8 0 -25 -8 -38
-23 -35 -26 -62 -11 -88 13 -24 14 -23 8 8 -4 21 -1 44 9 64 9 18 16 38 16 46
0 7 4 13 10 13 14 0 8 -51 -7 -57 -7 -3 -13 -10 -13 -15 0 -6 8 -4 17 3 15 13
16 12 11 -9 -5 -19 -4 -21 8 -11 8 6 15 9 15 5 1 -3 2 -10 3 -15 0 -5 4 -13 9
-17 4 -4 7 -13 7 -21 0 -15 39 -57 46 -50 3 3 -1 11 -9 18 -7 8 -16 22 -20 32
-5 13 -1 17 14 17 15 0 19 -4 15 -16 -4 -11 -2 -15 8 -11 17 7 15 -28 -4 -78
-6 -16 -9 -39 -6 -51 5 -20 9 -21 31 -11 29 14 32 42 8 69 -16 18 -16 18 0 12
20 -7 24 21 5 30 -7 3 0 4 15 2 25 -3 26 -2 12 14 -20 22 -20 54 0 46 9 -3 15
0 15 9 0 15 -30 9 -42 -8 -4 -6 -13 -4 -23 6 -18 18 -40 23 -30 7 13 -21 -15
-9 -40 17 -32 35 -32 45 0 37 22 -5 24 -3 20 23 -2 15 -7 38 -11 51 -4 13 -2
22 5 22 6 0 11 -7 11 -15 0 -9 6 -12 15 -9 17 7 19 -9 5 -36 -7 -13 -6 -21 5
-30 7 -6 11 -18 8 -26 -3 -8 0 -14 5 -14 18 0 23 19 12 42 -11 22 -10 22 4 4
9 -11 16 -16 17 -10 1 5 4 -1 7 -14 6 -21 9 -22 27 -8 16 12 18 18 9 33 -13
21 -7 83 8 83 6 0 8 -14 5 -35 -4 -22 -2 -33 4 -29 6 3 8 -9 5 -32 -4 -43 2
-67 15 -58 5 3 9 1 9 -5 0 -5 -6 -11 -12 -14 -10 -3 -10 -9 -1 -25 8 -13 9
-22 2 -24 -12 -4 -1 -38 12 -38 5 0 9 7 9 15 0 8 4 15 9 15 4 0 6 -12 3 -26
-3 -16 -9 -23 -18 -20 -10 4 -14 -4 -14 -32 0 -28 3 -33 10 -22 6 10 10 11 10
3 0 -7 6 -13 13 -13 10 0 12 10 9 32 -4 29 -3 31 11 20 14 -12 16 -10 13 22
-2 20 -9 43 -16 52 -11 13 -11 19 -1 36 10 16 10 18 0 12 -9 -5 -10 -2 -4 12
4 10 8 27 9 36 0 9 3 15 7 12 4 -2 10 5 14 16 4 13 15 20 33 20 25 0 27 4 29
43 4 76 10 124 17 136 10 16 26 14 26 -4 0 -8 -5 -15 -11 -15 -7 0 -9 -12 -5
-35 4 -19 3 -35 -2 -35 -5 0 -10 -24 -10 -52 -1 -29 -6 -64 -12 -78 -14 -39
-34 -114 -31 -124 1 -4 -3 -13 -8 -20 -6 -7 -4 -20 5 -36 15 -25 15 -25 8 9
-4 23 -3 31 5 27 11 -7 60 23 61 38 0 4 -11 5 -25 2 -14 -4 -25 -2 -25 4 0 5
8 10 18 10 21 0 46 53 43 92 -1 14 3 29 10 33 8 5 9 1 4 -16 -6 -18 -4 -21 5
-13 6 6 17 33 24 60 11 44 13 47 21 24 5 -15 4 -25 -4 -28 -6 -2 -11 -8 -11
-14 0 -6 6 -8 14 -5 11 5 14 -2 12 -26 -2 -18 -1 -22 1 -9 3 14 12 22 24 22
17 0 18 3 9 20 -6 11 -15 18 -19 15 -5 -2 -11 4 -14 16 -4 15 -1 19 11 18 27
-4 93 11 88 20 -3 5 -28 6 -56 4 -30 -2 -50 0 -50 7 0 5 5 10 11 10 5 0 8 4 5
9 -11 17 5 39 25 34 10 -3 19 -1 19 4 0 5 -14 9 -30 8 -32 -2 -35 2 -20 25 6
10 10 11 10 3 0 -7 5 -13 10 -13 6 0 10 7 10 15 0 8 -4 15 -10 15 -5 0 -10 8
-10 18 0 13 6 10 25 -13 13 -16 24 -36 25 -42 0 -7 5 -13 12 -13 6 0 4 -7 -5
-18 -19 -21 -22 -32 -7 -32 6 0 10 7 10 16 0 14 3 14 15 4 12 -10 15 -9 15 7
0 10 -5 24 -12 31 -15 15 -3 16 21 0 12 -7 16 -18 13 -31 -4 -15 -1 -19 9 -15
10 4 14 -3 15 -21 1 -14 5 -36 9 -48 6 -18 3 -25 -16 -32 -14 -6 -18 -10 -9
-11 9 -1 5 -5 -9 -11 -17 -7 -28 -6 -35 2 -8 8 -8 13 2 16 20 8 14 22 -8 16
-24 -6 -26 -35 -5 -53 12 -10 18 -10 30 0 13 10 14 6 11 -31 -2 -24 -9 -45
-15 -47 -14 -5 -15 -32 -1 -32 6 0 10 6 10 14 0 27 28 26 39 -2 8 -22 9 -17 7
31 -2 33 1 57 6 57 6 0 8 -11 6 -25 -3 -14 -2 -25 2 -25 5 0 6 -10 2 -22 -5
-20 -3 -21 10 -11 8 7 15 28 15 45 1 27 -1 29 -8 13 -6 -15 -7 -9 -5 20 2 27
8 41 19 43 11 2 14 -3 11 -20 -3 -18 -2 -17 7 5 6 16 15 24 22 21 9 -5 9 -4 0
6 -8 9 -19 10 -40 2 -27 -9 -29 -8 -30 17 -1 14 1 20 4 14 7 -18 36 -17 30 1
-10 25 7 28 25 4 l17 -23 -5 25 c-4 22 -3 22 5 5 5 -11 15 -35 21 -52 7 -18
16 -30 21 -27 5 3 9 0 9 -7 0 -7 11 -10 31 -7 24 4 33 0 39 -16 8 -18 9 -16 9
11 1 31 0 32 -34 28 -44 -6 -70 20 -71 70 -1 28 3 35 18 35 15 0 18 5 13 20
-6 18 -2 19 52 16 36 -2 61 1 66 8 5 6 6 -4 3 -23 l-6 -34 22 24 c13 13 20 26
15 27 -4 2 -5 8 -2 12 3 5 15 0 25 -10 11 -11 26 -20 33 -20 7 0 8 3 2 8 -12
8 -14 92 -2 92 7 0 11 -15 8 -37 -3 -23 18 -14 23 10 5 24 15 84 18 105 1 6
12 12 25 12 13 0 23 -6 23 -12 0 -9 4 -8 10 2 5 8 7 22 4 31 -2 9 2 19 10 22
10 4 13 1 9 -9 -3 -7 0 -14 7 -14 15 0 5 48 -15 70 -7 8 -12 30 -10 48 2 40
-17 42 -50 5 -13 -16 -25 -22 -25 -15 0 7 7 15 15 18 44 17 -3 24 -165 23
-107 0 -180 -4 -180 -9 0 -6 5 -10 10 -10 6 0 10 -4 10 -10 0 -18 -18 -11 -25
10 -10 31 -87 29 -104 -2 l-11 -23 6 23 5 22 -1020 0 -1021 0 1 -717z m968
287 c5 -16 14 -30 19 -30 6 0 13 -7 16 -16 5 -14 4 -15 -8 -5 -11 9 -16 9 -22
0 -4 -7 -2 -15 4 -17 7 -2 5 -14 -8 -34 -10 -17 -16 -37 -13 -44 3 -8 0 -14
-7 -14 -6 0 -9 -4 -5 -10 3 -5 1 -17 -4 -27 -16 -30 -24 -57 -22 -74 1 -9 -5
-22 -14 -29 -9 -8 -15 -8 -15 -2 0 6 5 14 10 17 16 10 11 27 -7 23 -9 -2 -20
-14 -23 -27 -4 -16 -13 -25 -28 -26 -20 -2 -21 0 -7 15 9 10 13 24 9 35 -5 12
-4 16 4 11 6 -4 17 2 24 14 7 11 16 20 21 20 4 0 5 -4 2 -10 -3 -5 -1 -10 4
-10 14 0 14 13 -1 28 -9 9 -9 15 0 24 7 7 12 26 12 43 0 46 21 145 31 145 5 0
6 7 3 15 -4 8 -2 15 4 15 6 0 15 -13 21 -30z m-783 -2116 c-3 -8 -14 -10 -28
-6 -21 5 -22 4 -9 -12 12 -14 12 -23 1 -56 -13 -40 -13 -40 -32 -20 -10 11
-24 20 -30 20 -6 0 -4 -8 5 -18 11 -12 13 -22 7 -32 -13 -20 -13 -40 0 -40 5
0 7 6 4 14 -3 8 -1 17 4 20 16 10 20 -17 6 -42 -7 -14 -13 -19 -16 -11 -3 9
-9 9 -26 0 -21 -11 -21 -13 -5 -37 19 -29 6 -46 -28 -37 -19 5 -27 33 -9 33 6
0 10 -4 10 -10 0 -5 5 -10 12 -10 6 0 4 8 -6 19 -9 10 -14 25 -10 35 5 12 2
15 -10 10 -12 -5 -16 0 -16 17 1 31 28 68 38 52 4 -7 13 -8 20 -4 9 5 5 11
-13 21 -14 7 -25 17 -25 22 0 13 18 9 23 -4 4 -9 13 -5 30 13 21 23 25 25 34
10 6 -9 14 -13 19 -8 4 4 3 12 -4 19 -8 8 -8 17 -1 30 6 10 7 29 4 41 -7 21
-6 21 7 3 14 -18 15 -18 22 5 l7 24 10 -24 c5 -14 8 -30 5 -37z"/>
<path d="M2586 9304 c-10 -27 -8 -40 6 -26 9 9 14 7 24 -6 11 -14 16 -15 33
-5 19 12 19 10 16 -40 -3 -45 -2 -50 10 -34 7 10 11 28 8 40 -4 20 -3 20 7 4
6 -10 8 -27 4 -40 -5 -12 -7 -29 -6 -37 1 -9 -1 -10 -4 -3 -3 7 -12 9 -20 6
-13 -5 -20 23 -15 63 1 6 -5 11 -14 11 -8 0 -12 -4 -9 -9 3 -5 -2 -18 -12 -29
-16 -18 -16 -19 4 -19 22 0 26 -11 23 -55 -1 -18 -1 -18 9 -3 8 14 16 15 36 8
37 -14 39 -14 68 28 29 42 34 61 11 42 -21 -18 -28 -8 -16 23 6 15 16 25 23
23 7 -3 27 -7 43 -11 29 -7 29 -7 8 -16 -13 -4 -23 -13 -23 -18 0 -6 7 -8 15
-5 8 4 15 1 15 -5 0 -6 -7 -11 -15 -11 -8 0 -15 -4 -15 -10 0 -5 -7 -10 -15
-10 -12 0 -14 -4 -7 -17 12 -21 39 -25 46 -8 3 9 0 12 -10 8 -10 -4 -12 0 -8
11 3 9 12 16 18 16 7 0 18 11 24 24 9 20 7 28 -8 46 -11 12 -16 29 -13 38 4
10 8 12 11 4 2 -7 17 -12 32 -12 16 0 32 -5 35 -10 10 -17 25 -1 25 26 0 14 4
22 10 19 6 -3 10 -1 10 4 0 7 -51 11 -150 11 -93 0 -150 -4 -150 -10 0 -5 -5
-10 -11 -10 -5 0 -7 5 -4 10 3 6 -5 10 -18 10 -14 0 -28 -7 -31 -16z"/>
<path d="M7140 9306 c0 -8 7 -16 15 -20 8 -3 15 -13 15 -22 0 -14 2 -15 17 -3
15 13 16 12 11 -8 -4 -13 -2 -26 3 -29 5 -3 6 -10 3 -16 -5 -7 -8 -7 -13 0 -3
6 -7 -8 -7 -31 -1 -30 1 -36 7 -22 6 15 8 11 9 -20 2 -22 2 -46 1 -54 -2 -7 2
-10 8 -7 6 4 11 -11 14 -36 3 -41 4 -41 5 10 1 29 -2 52 -8 52 -5 0 -10 7 -10
15 0 8 5 15 10 15 6 0 10 -6 10 -12 0 -9 4 -8 11 2 8 12 9 9 5 -12 -4 -17 -2
-28 4 -28 6 0 6 -7 -2 -20 -7 -10 -9 -22 -5 -26 12 -12 19 3 24 50 3 25 9 44
13 41 10 -6 0 -99 -11 -103 -5 -2 -8 -16 -8 -30 1 -19 3 -22 6 -8 4 14 11 17
36 13 27 -5 28 -4 11 4 -15 8 -20 20 -20 47 1 20 4 42 7 47 10 17 9 94 -1 100
-6 4 -10 -8 -11 -27 0 -30 -1 -31 -10 -10 l-9 23 -22 -20 c-12 -12 -24 -19
-26 -16 -3 3 5 14 18 25 18 16 21 23 12 32 -7 7 -12 17 -12 23 0 5 9 -1 20
-15 11 -14 20 -20 20 -14 0 5 -5 15 -11 21 -16 16 -4 44 16 37 11 -5 15 1 15
19 0 14 4 29 10 32 6 4 9 -6 7 -25 -2 -18 -10 -36 -17 -40 -11 -7 -11 -11 0
-25 13 -15 15 -15 22 4 4 12 14 21 22 21 15 0 32 37 22 47 -3 4 -6 -1 -6 -10
0 -9 -7 -17 -15 -17 -12 0 -14 4 -5 19 13 26 33 38 38 23 4 -12 32 -5 32 9 0
13 -54 11 -68 -3 -9 -9 -12 -9 -12 0 0 8 -17 12 -45 12 -47 0 -53 -7 -34 -42
7 -14 8 -18 0 -14 -6 4 -14 -7 -19 -26 -8 -27 -11 -30 -17 -15 -4 9 -4 25 1
35 4 9 8 27 9 40 1 20 -4 22 -42 22 -30 0 -43 -4 -43 -14z"/>
<path d="M7535 9312 c-13 -14 -3 -23 12 -11 15 12 16 12 9 -6 -17 -44 -18 -50
-2 -31 21 25 29 16 17 -18 -7 -17 -7 -26 -1 -26 6 0 10 5 10 10 0 6 5 10 11
10 6 0 9 -8 7 -17 -2 -10 -10 -18 -18 -18 -15 0 -26 -54 -17 -78 7 -19 6 -32
-4 -30 -4 2 -6 -3 -3 -11 3 -8 1 -17 -5 -21 -18 -11 -13 -43 7 -41 12 1 16 -5
13 -19 -2 -11 -5 -42 -7 -70 -4 -44 -3 -48 9 -32 8 9 19 17 25 17 12 0 25 30
16 39 -3 3 -11 -2 -18 -12 -18 -24 -29 -21 -20 6 9 29 8 29 35 19 19 -7 27 -4
42 15 12 14 17 32 14 45 -3 11 -3 34 0 50 4 22 8 26 19 17 11 -9 11 -14 -1
-32 -11 -18 -11 -25 -1 -39 15 -20 26 -14 26 16 1 20 1 20 11 2 9 -14 8 -20
-1 -26 -8 -5 -10 -18 -6 -36 7 -27 8 -27 18 -10 6 11 12 42 13 70 3 98 3 98
25 84 19 -12 18 -23 -3 -23 -14 0 -18 -82 -5 -108 7 -13 13 -15 28 -7 27 15
34 12 16 -6 -9 -9 -16 -33 -16 -57 0 -38 1 -39 14 -21 8 10 18 15 22 11 5 -4
2 -12 -5 -16 -10 -7 -11 -13 -2 -27 10 -18 10 -18 11 4 0 27 16 29 30 2 9 -16
8 -22 -5 -26 -16 -7 -21 -44 -5 -44 6 0 10 7 10 16 0 8 5 12 10 9 14 -8 3 -83
-15 -112 -9 -13 -12 -23 -8 -23 4 0 -2 -6 -13 -14 -10 -8 -15 -18 -11 -23 5
-4 13 0 18 9 12 21 43 12 34 -10 -3 -8 -1 -20 5 -27 12 -15 15 -53 6 -80 -7
-19 -7 -19 4 -2 11 18 13 17 30 -11 20 -33 23 -47 21 -109 -1 -25 -8 -49 -18
-59 -16 -16 -16 -16 7 -9 14 4 37 14 53 22 15 7 27 10 27 6 0 -5 4 -3 8 3 12
18 90 45 98 33 3 -6 3 -13 0 -16 -3 -3 1 -21 9 -39 18 -42 13 -109 -10 -134
-14 -16 -18 -42 -20 -145 -2 -72 -8 -131 -14 -139 -6 -7 -8 -16 -5 -19 3 -3 2
-11 -2 -19 -18 -28 -12 -118 7 -118 6 0 7 6 3 12 -9 15 -5 81 5 88 4 3 8 18 9
33 1 16 6 36 12 45 7 13 10 5 11 -33 l2 -50 6 40 c4 23 1 57 -7 80 -15 43 -9
172 9 190 5 5 9 17 9 28 0 10 5 15 10 12 6 -3 10 1 10 10 0 9 4 13 10 10 6 -3
7 1 4 9 -3 9 -10 16 -14 16 -5 0 -5 14 0 30 5 17 5 30 0 30 -8 0 -21 38 -17
55 1 5 9 8 16 7 13 -3 13 -1 2 12 -7 9 -17 13 -22 10 -5 -3 -9 9 -9 25 0 17 5
31 11 31 6 0 9 16 6 43 -3 23 0 55 7 71 10 25 11 18 8 -50 -2 -44 -8 -80 -13
-82 -5 -2 -9 -7 -9 -12 0 -15 39 2 44 19 3 9 2 -4 -1 -29 -3 -25 -10 -51 -15
-57 -8 -9 -6 -13 5 -13 11 0 14 -5 10 -17 -4 -11 -3 -14 5 -9 7 4 12 2 12 -5
0 -7 3 -9 7 -6 3 4 1 18 -6 31 -9 16 -10 29 -3 42 6 11 8 32 5 48 -4 20 -2 27
6 22 6 -4 11 -22 12 -39 l1 -32 14 30 c10 21 14 24 13 10 -1 -11 -1 -29 0 -40
1 -18 2 -18 19 -2 14 15 15 19 3 26 -20 13 -6 42 16 34 15 -6 16 -4 5 9 -9 11
-10 18 -2 23 5 3 13 -1 16 -9 3 -9 12 -16 20 -16 8 0 14 -7 14 -15 0 -8 -3
-14 -7 -14 -5 1 -16 1 -25 0 -22 -1 -24 -21 -3 -21 9 0 12 -6 8 -17 -3 -11 1
-9 12 6 16 21 19 22 28 6 6 -12 6 -20 -2 -24 -12 -8 -5 -41 9 -41 10 0 22 48
15 60 -4 6 -2 10 4 10 5 0 13 -5 17 -11 5 -8 9 -8 14 1 4 6 7 -3 8 -20 1 -30
0 -31 -13 -14 -13 18 -14 16 -15 -16 0 -25 3 -31 10 -20 5 8 12 11 16 8 9 -10
-4 -41 -14 -34 -5 3 -17 -30 -29 -72 -11 -42 -23 -85 -28 -94 -4 -11 -3 -18 4
-18 6 0 11 9 11 19 0 11 4 22 8 25 5 3 14 30 21 60 7 31 17 59 23 62 7 5 9 1
5 -9 -3 -8 0 -20 7 -26 11 -9 13 -3 10 27 -2 29 3 43 18 56 19 17 20 17 14
-11 -4 -15 -9 -41 -11 -58 l-5 -30 20 25 c14 18 20 21 21 10 1 -8 2 -32 3 -53
3 -40 16 -64 16 -28 0 12 4 19 10 16 16 -10 12 -45 -5 -45 -16 0 -18 -12 -9
-47 10 -35 24 -27 24 12 0 19 4 35 8 35 5 0 8 17 6 38 -3 57 -4 58 -14 42 -7
-11 -10 -7 -10 18 0 22 -4 31 -11 26 -7 -4 -10 1 -7 12 2 10 10 20 19 22 12 2
15 -4 11 -28 -2 -18 0 -30 7 -30 6 0 11 9 11 21 0 12 4 17 11 13 7 -4 8 -20 4
-41 -4 -24 -3 -33 4 -28 6 3 11 1 11 -4 0 -6 -4 -11 -10 -11 -5 0 -10 -7 -10
-15 0 -8 5 -15 10 -15 7 0 7 -6 0 -19 -5 -11 -7 -27 -3 -37 4 -12 3 -15 -5
-10 -7 4 -15 0 -19 -11 -15 -41 -48 -37 -58 8 -8 37 -23 29 -17 -10 3 -20 -2
-35 -17 -50 -22 -22 -27 -41 -11 -41 6 0 8 -22 4 -56 -3 -37 0 -61 8 -71 9
-12 9 -16 -2 -23 -9 -5 -19 -45 -27 -102 -17 -115 -19 -136 -21 -172 -2 -21
-6 -27 -18 -22 -10 4 -14 1 -12 -6 7 -21 26 -20 38 2 10 19 19 80 21 140 1 59
10 80 34 80 16 0 25 6 25 15 0 8 5 15 10 15 21 0 9 -38 -14 -44 -28 -7 -40
-61 -26 -116 l10 -35 -4 43 c-2 23 0 42 5 42 5 0 9 -1 10 -2 13 -65 9 -88 -18
-118 -30 -33 -45 -80 -33 -100 11 -18 23 5 15 29 -3 10 1 24 10 31 14 11 15 5
14 -53 -1 -55 -5 -67 -20 -72 -11 -4 -19 -13 -19 -21 0 -8 -4 -12 -10 -9 -11
7 -14 -8 -3 -19 4 -4 15 3 25 16 16 21 18 22 18 4 0 -13 3 -17 10 -10 5 5 11
53 12 107 1 77 4 97 16 97 8 0 12 6 8 15 -5 13 5 20 27 16 4 0 7 11 7 25 0 14
4 22 10 19 5 -3 6 -20 3 -38 -6 -29 -5 -31 10 -18 9 7 17 10 18 5 0 -5 4 0 9
11 8 19 9 19 9 -2 1 -12 -3 -24 -9 -28 -5 -3 -8 -25 -8 -48 1 -23 -2 -55 -5
-72 -12 -53 -16 -154 -6 -160 5 -4 9 4 10 17 3 85 10 141 18 157 6 10 8 36 5
57 l-6 39 21 -37 c20 -36 30 -67 12 -40 -5 9 -12 -7 -19 -45 -13 -69 -13 -88
0 -130 10 -36 17 -40 37 -20 7 6 11 8 9 2 -2 -5 1 -11 6 -13 11 -3 18 27 10
40 -3 4 -12 1 -21 -7 -22 -23 -25 -13 -9 26 10 22 15 27 16 15 0 -18 1 -18 20
-1 11 10 20 13 20 7 0 -6 -4 -14 -10 -17 -5 -3 -7 -18 -4 -33 4 -19 0 -33 -10
-41 -21 -17 -22 -52 -1 -45 22 9 18 -12 -5 -29 -21 -15 -40 -97 -22 -97 6 0
12 17 14 37 4 52 26 55 23 3 -2 -28 2 -43 11 -47 8 -3 14 -12 14 -20 0 -8 -4
-12 -9 -9 -8 6 -21 -15 -21 -35 0 -20 21 -7 31 19 11 27 11 27 22 5 11 -25 -4
-53 -29 -53 -20 0 -33 -31 -27 -65 4 -27 3 -28 -10 -13 -19 23 -27 13 -26 -31
l2 -36 7 35 c5 21 7 -2 4 -60 -3 -66 -2 -90 5 -80 6 8 11 41 11 72 0 35 5 58
12 60 7 3 13 22 15 43 1 21 5 45 8 54 5 13 7 14 15 1 8 -13 10 -12 10 3 0 9 5
17 11 17 12 0 1 -43 -12 -48 -4 -2 -5 -10 -2 -18 3 -8 0 -14 -7 -14 -7 0 -9
-8 -5 -20 4 -12 2 -27 -4 -34 -6 -8 -8 -21 -5 -31 5 -13 9 -14 16 -3 6 9 8 -1
5 -29 -3 -23 -3 -44 0 -47 7 -7 33 5 33 16 0 5 -4 6 -10 3 -5 -3 -10 3 -10 15
0 13 4 19 11 14 8 -5 8 -1 0 14 -6 11 -11 31 -11 43 0 19 2 20 16 8 10 -8 12
-15 5 -17 -16 -5 -14 -22 3 -22 10 0 14 -15 14 -61 0 -47 -3 -59 -14 -55 -18
7 -23 -4 -13 -29 6 -17 8 -17 8 -2 1 9 6 17 12 17 8 0 10 -13 6 -37 l-6 -38
23 45 c17 34 20 46 9 48 -21 5 -17 70 5 74 14 3 17 13 15 73 -2 46 0 63 6 50
5 -11 7 -68 6 -127 -2 -63 1 -106 6 -102 5 3 9 32 9 65 0 65 19 75 21 11 l1
-37 9 30 c5 17 7 35 4 42 -5 14 11 27 19 15 2 -4 -1 -38 -8 -75 -9 -44 -9 -64
-3 -58 18 18 27 12 26 -16 0 -25 -1 -26 -9 -8 -7 17 -9 15 -9 -12 -1 -17 5
-33 11 -35 7 -3 11 -19 10 -39 -3 -32 -2 -33 12 -14 8 11 11 24 8 30 -3 5 -7
28 -8 50 -3 89 -4 91 -15 75 -10 -15 -7 28 8 88 3 13 1 22 -6 22 -7 0 -9 10
-5 26 4 17 3 25 -3 21 -6 -4 -8 3 -6 18 3 14 10 22 18 19 16 -6 26 36 31 121
1 33 3 66 3 73 1 7 5 11 10 8 11 -7 11 -88 0 -101 -4 -6 -8 -29 -8 -50 0 -96
-1 -101 -12 -82 -11 19 -29 23 -29 6 0 -5 5 -7 10 -4 11 7 12 -3 12 -120 l0
-80 7 62 c3 34 12 68 20 75 11 11 13 8 7 -15 -4 -17 -3 -26 2 -23 5 3 13 -9
17 -27 l8 -32 4 29 c3 17 -1 32 -8 37 -11 6 -11 12 0 32 7 13 12 30 11 38 -4
29 0 62 7 55 5 -4 8 -35 8 -69 0 -55 2 -62 20 -62 12 -1 19 -6 16 -15 -2 -8
-5 -36 -8 -61 -4 -44 -3 -47 26 -60 17 -8 31 -18 31 -22 0 -5 4 -6 8 -3 15 9
33 -91 22 -120 -10 -25 -13 -71 -3 -46 2 6 8 12 12 12 10 0 6 -47 -6 -62 -10
-12 -17 -53 -14 -88 1 -12 3 -12 10 -2 25 40 16 -93 -11 -158 -9 -21 -12 -43
-7 -55 7 -18 8 -18 9 5 1 14 4 20 6 13 3 -7 12 -9 20 -6 12 4 15 27 13 119 -1
76 -5 113 -12 111 -6 -1 -12 10 -12 26 -1 29 12 37 17 10 2 -9 4 37 4 103 1
70 -2 107 -6 89 -5 -21 -8 -4 -8 55 0 56 2 78 8 65 7 -16 9 -13 9 17 1 20 -5
39 -11 42 -10 5 -10 7 0 12 9 4 12 268 12 1270 l0 1264 -761 0 c-687 0 -760
-2 -748 -16 7 -9 9 -18 3 -22 -21 -15 -36 -54 -25 -65 6 -6 11 -19 11 -28 0
-9 7 -19 15 -23 8 -3 15 -13 15 -21 0 -10 5 -13 12 -9 7 4 8 3 4 -5 -8 -13
-26 -6 -26 11 0 6 -8 17 -17 24 -15 11 -20 9 -30 -9 -12 -22 -12 -22 -11 3 1
14 5 30 10 37 5 6 5 14 1 16 -14 9 -6 62 14 100 2 4 -2 7 -10 7 -8 0 -14 -7
-13 -16 0 -9 -4 -19 -11 -21 -7 -3 -10 3 -6 16 4 17 0 20 -26 19 -17 -1 -33
-3 -36 -6z m425 -497 c-7 -8 -9 -23 -5 -35 4 -12 2 -26 -3 -33 -13 -17 -22
-86 -12 -92 5 -3 11 -1 14 4 4 5 2 11 -3 13 -4 1 -5 12 -1 22 6 18 7 18 29 -5
l22 -23 -1 29 c0 50 4 75 12 75 15 0 46 -33 42 -45 -6 -14 23 -41 33 -31 3 3
1 6 -5 6 -7 0 -12 8 -12 17 0 15 2 16 15 2 16 -15 20 -58 12 -114 -3 -16 0
-33 5 -36 7 -4 6 -9 -1 -13 -6 -4 -11 -2 -11 4 0 6 -5 8 -10 5 -8 -5 -7 -11 1
-21 9 -11 9 -17 -1 -29 -10 -12 -10 -18 0 -30 20 -24 27 -18 24 20 -3 35 9 48
20 20 8 -21 -13 -75 -30 -75 -7 0 -18 9 -24 20 -14 27 -16 130 -3 138 10 6 17
42 14 65 -1 4 -10 3 -21 -3 -21 -11 -25 -2 -21 42 2 12 -3 16 -13 12 -19 -7
-19 -14 -5 -50 12 -33 3 -78 -14 -71 -8 3 -12 -6 -13 -25 l-1 -29 18 31 c18
29 39 40 39 20 0 -5 -7 -10 -15 -10 -16 0 -21 -16 -6 -22 5 -1 12 -23 16 -48
4 -24 11 -52 16 -62 7 -13 4 -20 -10 -28 -25 -13 -31 -13 -31 0 0 6 7 10 15
10 17 0 20 16 5 25 -5 3 -10 1 -10 -4 0 -6 -7 -11 -15 -11 -8 0 -15 -9 -15
-20 0 -16 -26 -40 -44 -40 -10 0 -6 79 4 85 6 3 10 11 10 16 0 6 -5 7 -12 3
-8 -5 -9 0 -6 14 4 12 2 20 -2 17 -10 -6 -28 23 -40 64 -4 14 -11 35 -16 45
-5 13 -4 17 3 13 17 -11 22 72 5 85 -19 16 -7 55 26 83 28 24 52 24 32 0z"/>
<path d="M4320 8899 c-599 -46 -1199 -223 -1715 -507 -193 -106 -426 -256
-538 -346 -440 -353 -695 -629 -985 -1063 -34 -51 -62 -95 -62 -97 0 -3 -18
-35 -40 -71 -100 -164 -245 -468 -325 -680 -56 -151 -139 -452 -174 -631 -61
-317 -74 -451 -75 -774 -1 -162 1 -329 3 -370 2 -52 0 -74 -8 -73 -6 2 -11 -2
-11 -8 0 -6 6 -9 14 -6 10 4 15 -12 20 -66 20 -215 84 -526 162 -780 80 -261
244 -643 354 -823 22 -37 40 -68 40 -70 0 -7 94 -155 174 -274 44 -66 219
-297 235 -310 3 -3 21 -23 40 -45 161 -190 343 -364 571 -546 584 -467 1282
-769 2030 -878 608 -89 1335 -30 1883 153 236 78 360 129 560 226 451 219 820
481 1162 824 281 282 490 556 684 895 79 138 86 148 79 109 -3 -16 -1 -25 4
-21 6 3 7 18 4 34 -3 19 1 40 14 61 10 18 44 92 75 163 30 72 60 139 65 150
42 89 132 363 179 545 45 179 99 461 105 555 4 58 20 95 42 95 8 0 12 5 9 10
-14 23 4 8 20 -16 14 -22 15 -28 4 -35 -7 -4 -11 -11 -7 -14 3 -4 16 3 29 16
22 22 23 22 30 3 4 -10 8 -26 8 -34 1 -13 -1 -13 -8 -1 -5 8 -16 11 -24 8 -13
-5 -13 -10 1 -41 17 -38 34 -49 25 -17 -3 10 1 22 8 27 9 5 11 2 6 -9 -4 -12
-1 -15 16 -12 21 4 21 4 3 -10 -16 -12 -17 -17 -6 -30 16 -20 56 -14 75 10 14
19 14 18 15 -12 0 -17 -4 -35 -10 -38 -5 -3 -10 -1 -10 4 0 16 -17 13 -23 -3
-3 -8 1 -13 11 -12 10 1 18 -8 20 -21 4 -25 22 -32 22 -8 0 8 4 15 9 15 13 0
23 -48 15 -72 -4 -15 -3 -18 6 -13 8 5 10 22 7 46 -3 22 -1 37 3 34 5 -3 10 0
13 7 2 7 2 3 1 -9 -2 -12 1 -25 7 -29 13 -8 7 105 -7 140 -5 13 -4 17 4 12 8
-5 11 34 9 148 -1 103 -5 152 -12 148 -6 -3 -6 0 1 9 14 19 18 117 5 149 -5
14 -11 19 -12 13 -2 -14 -5 -28 -9 -40 -4 -13 -7 -27 -9 -43 -1 -8 -8 0 -16
19 -17 38 -19 53 -5 31 9 -13 10 -13 10 1 0 8 10 26 23 39 17 19 22 37 23 83
1 31 -3 60 -7 63 -5 3 -9 10 -9 15 0 6 5 7 10 4 6 -3 10 3 10 14 0 12 -4 21
-10 21 -5 0 -10 7 -10 16 0 8 4 13 9 10 5 -4 9 251 10 624 0 485 -3 629 -12
627 -17 -3 -36 -29 -37 -49 0 -10 -4 -18 -10 -18 -5 0 -10 -5 -10 -11 0 -5 5
-7 11 -3 6 3 15 0 20 -7 6 -9 9 1 9 31 1 37 3 42 11 27 8 -14 8 -32 -2 -65 -7
-26 -12 -57 -11 -69 1 -12 -3 -25 -10 -29 -8 -5 -10 3 -6 27 3 19 2 43 -3 54
-4 11 -8 14 -8 8 -1 -7 -6 -13 -12 -13 -7 0 -9 13 -4 38 9 53 7 114 -5 126 -8
8 -10 2 -9 -19 6 -71 0 -95 -25 -105 -13 -5 -27 -14 -31 -19 -3 -6 -15 -11
-26 -11 -10 0 -19 -5 -19 -11 0 -5 5 -7 10 -4 6 3 10 -2 10 -12 0 -16 5 -11
34 33 1 1 11 4 22 8 16 5 23 2 27 -13 7 -27 -3 -34 -19 -13 -12 15 -13 15 -14
1 0 -9 7 -22 15 -29 10 -9 15 -9 15 -1 0 6 7 11 15 11 23 0 18 -20 -7 -29 -16
-6 -28 -4 -38 4 -18 17 -50 2 -50 -22 0 -14 2 -14 14 3 11 14 18 16 26 8 9 -9
7 -17 -9 -33 -23 -23 -26 -37 -11 -46 6 -3 10 -13 10 -21 0 -8 -4 -12 -10 -9
-6 4 -10 -9 -10 -32 0 -28 -3 -34 -10 -23 -6 8 -7 28 -4 44 4 19 3 26 -5 22
-16 -10 -15 -107 1 -103 8 1 13 -13 13 -41 1 -24 -2 -37 -7 -30 -4 7 -7 -7 -5
-32 1 -29 8 -50 20 -60 16 -13 17 -19 6 -43 -7 -15 -16 -27 -21 -27 -4 0 -8
-7 -8 -15 0 -8 -4 -15 -10 -15 -5 0 -1 -9 11 -21 11 -11 18 -27 15 -35 -3 -8
0 -14 7 -14 8 0 7 -4 -3 -10 -12 -7 -13 -15 -3 -40 7 -19 8 -32 1 -36 -5 -3
-7 -12 -4 -20 3 -7 1 -16 -4 -19 -20 -12 -10 -26 10 -15 18 10 20 8 20 -27 0
-21 7 -49 16 -62 12 -17 13 -26 5 -34 -6 -6 -11 -28 -11 -48 0 -21 -4 -41 -10
-44 -13 -8 -13 46 0 80 14 37 -1 63 -17 29 -6 -13 -7 -24 -2 -24 5 0 4 -12 -1
-26 -6 -14 -10 -50 -10 -80 0 -30 -4 -54 -10 -54 -5 0 -10 -8 -10 -17 0 -15 2
-15 9 -4 13 20 41 23 48 5 7 -18 -19 -74 -34 -74 -7 0 -13 -6 -13 -12 0 -7 -6
-25 -13 -39 -9 -16 -13 -49 -10 -92 2 -54 0 -67 -12 -67 -15 0 -35 -29 -35
-52 0 -7 11 1 25 17 l25 30 -5 -30 c-2 -16 -11 -35 -20 -41 -14 -10 -14 -13 1
-25 13 -10 17 -10 24 1 6 9 5 17 -2 21 -7 4 -7 9 1 13 6 4 11 2 11 -3 0 -19
17 -12 28 12 6 12 11 16 11 9 1 -7 -6 -24 -15 -38 -13 -18 -14 -30 -7 -47 11
-24 7 -47 -8 -47 -5 0 -9 11 -9 24 0 24 -12 41 -22 31 -3 -3 -1 -26 4 -53 6
-26 10 -62 10 -80 l-1 -34 30 47 c17 26 28 50 25 53 -3 2 -8 -3 -12 -12 -7
-17 -34 -23 -34 -6 0 9 38 34 53 35 5 0 15 9 23 19 20 28 29 13 9 -17 -8 -13
-19 -44 -23 -68 -6 -34 -12 -43 -25 -41 -25 4 -22 -34 4 -41 22 -6 30 5 33 50
2 39 27 113 38 113 8 0 7 -14 -6 -60 -6 -23 -14 -77 -15 -108 -1 -6 -7 -11
-13 -10 -7 2 -12 -3 -10 -9 1 -7 -2 -13 -8 -13 -5 0 -10 7 -10 15 0 8 -4 15
-10 15 -5 0 -10 -4 -10 -9 0 -5 -6 -11 -14 -14 -9 -4 -12 2 -10 19 1 13 -1 24
-6 24 -12 0 -21 -30 -13 -42 3 -6 1 -8 -4 -5 -6 4 -16 -6 -22 -24 -10 -30 -31
-32 -31 -3 0 8 4 12 10 9 6 -3 7 1 4 10 -7 19 14 47 29 38 6 -4 8 2 4 18 -4
13 -7 39 -7 57 0 17 -5 32 -11 32 -7 0 -9 -12 -5 -34 6 -33 -14 -92 -27 -79
-6 6 -11 -12 -8 -29 2 -12 -27 -9 -35 3 -3 6 0 15 7 20 9 6 10 12 4 17 -6 4
-10 126 -11 327 0 240 -5 357 -18 468 -12 99 -14 152 -8 160 25 29 51 207 31
207 -5 0 -8 -15 -8 -32 1 -18 -4 -55 -10 -83 -7 -27 -12 -58 -12 -67 0 -10 -3
-18 -7 -18 -4 0 -22 75 -40 168 -19 92 -38 185 -44 207 -5 22 -11 52 -11 68
-1 15 -5 27 -9 27 -3 0 -12 24 -18 53 -24 99 -112 338 -201 547 -140 328 -409
753 -656 1038 -389 448 -816 780 -1333 1037 -335 167 -586 257 -950 340 -390
89 -855 124 -1250 94z"/>
<path d="M1319 8628 c-2 -31 -11 -64 -24 -91 -8 -17 -15 -43 -15 -59 0 -18 -5
-28 -15 -28 -10 0 -15 -10 -15 -29 0 -30 -17 -87 -24 -80 -2 2 0 29 5 59 5 30
11 72 14 92 5 35 -7 59 -19 39 -4 -5 -2 -13 4 -16 7 -4 8 -11 1 -18 -5 -7 -12
-41 -15 -77 -3 -36 -10 -81 -16 -100 -13 -46 -13 -47 6 -24 14 18 15 18 9 -6
-4 -14 -20 -57 -36 -97 -31 -77 -36 -98 -18 -87 8 4 9 -1 4 -16 -5 -15 -4 -20
4 -16 6 4 11 24 11 45 0 20 4 41 9 47 5 5 11 18 13 29 1 11 6 23 10 26 5 3 11
27 14 54 5 49 20 79 33 70 4 -2 8 15 10 38 1 23 8 48 15 57 7 8 13 28 14 44 1
16 7 35 13 42 6 8 8 14 4 14 -4 0 -2 6 4 14 16 19 24 86 11 86 -5 0 -10 -6
-11 -12z"/>
<path d="M8526 7462 c-4 -7 -5 -21 -1 -31 3 -11 2 -22 -4 -25 -5 -3 -7 -15 -4
-26 7 -27 -6 -90 -18 -90 -6 0 -8 4 -4 10 9 15 14 130 5 135 -5 3 -12 -19 -15
-50 -7 -56 -31 -95 -52 -88 -17 6 -16 -9 2 -33 17 -23 20 -81 3 -86 -7 -3 -5
-7 6 -11 16 -6 18 -1 16 45 -2 29 -2 62 -1 73 2 19 3 18 11 -3 5 -12 6 -30 3
-39 -4 -11 -3 -14 5 -9 7 4 12 17 13 29 1 27 3 21 25 -75 18 -81 33 -101 35
-45 0 28 15 80 19 67 5 -16 6 -66 2 -75 -9 -15 -8 -104 1 -98 4 3 13 0 20 -5
7 -5 21 -6 32 -1 20 8 15 10 -25 13 -12 1 -15 15 -14 63 0 34 6 69 13 77 10
12 9 16 -6 25 -16 9 -16 12 -3 21 26 17 32 11 28 -25 -2 -21 0 -34 6 -32 14 5
26 66 14 73 -5 3 -4 11 2 19 13 16 4 39 -11 30 -5 -4 -13 5 -19 19 -14 38 -19
32 -18 -19 1 -50 -8 -68 -22 -45 -6 9 -5 19 0 24 16 16 12 28 -7 24 -13 -2
-18 -14 -19 -38 -3 -63 -4 -70 -12 -70 -9 0 -6 79 6 164 10 62 2 130 -12 108z"/>
<path d="M42 3978 c-7 -9 -11 -46 -9 -103 1 -67 -2 -90 -12 -93 -10 -3 -12 3
-6 29 4 22 3 29 -3 21 -5 -8 -10 -98 -11 -200 l-2 -187 24 35 c14 20 27 44 30
55 3 13 5 9 6 -12 0 -17 6 -35 11 -38 6 -3 10 -17 10 -31 0 -13 4 -24 9 -24
18 0 41 12 41 22 0 6 -7 8 -15 4 -10 -4 -15 1 -15 14 0 22 15 27 24 8 3 -7 3
-3 1 8 -3 13 1 28 10 37 16 17 21 32 6 23 -5 -3 -12 1 -15 10 -3 9 -2 12 5 9
5 -4 22 -4 37 0 32 8 13 23 -24 19 -24 -2 -33 10 -15 20 5 4 11 0 14 -6 2 -7
8 -10 12 -6 4 4 2 14 -4 22 -12 15 -40 11 -52 -7 -3 -5 -9 1 -12 12 -4 16 0
21 14 21 17 0 25 22 20 53 -1 5 3 5 9 2 6 -4 9 -13 6 -21 -8 -21 33 -59 47
-45 8 8 7 11 -5 11 -21 0 -31 46 -22 96 5 26 4 35 -5 30 -6 -4 -11 -14 -11
-22 0 -8 -4 -14 -9 -14 -21 0 -19 17 4 46 21 24 26 27 35 14 5 -8 8 -21 5 -28
-3 -7 0 -10 6 -7 11 7 3 42 -14 63 -8 11 -12 10 -20 -4 -10 -17 -11 -17 -18 1
-7 16 -8 14 -6 -9 2 -32 -19 -48 -26 -19 -4 15 -5 14 -6 -4 -1 -30 -18 -37
-25 -11 -3 14 0 26 9 31 17 9 20 53 5 62 -6 4 -8 11 -5 16 4 5 -2 9 -12 9 -10
0 -14 4 -8 8 10 7 35 48 35 57 0 3 -4 5 -10 5 -5 0 -10 -7 -10 -15 0 -16 -12
-20 -23 -8 -4 3 -2 12 4 19 6 7 9 18 7 25 -3 8 -7 7 -16 -3z"/>
<path d="M305 3553 c-4 -10 -8 -35 -10 -55 -1 -21 -13 -49 -26 -66 -13 -16
-31 -39 -38 -50 -19 -27 -46 -39 -37 -17 3 10 2 14 -5 9 -6 -3 -8 -17 -5 -29
3 -13 1 -27 -5 -30 -6 -4 -8 -13 -5 -21 3 -8 1 -14 -3 -14 -15 0 -22 -33 -9
-42 9 -5 6 -8 -9 -8 -27 0 -32 34 -8 44 8 3 15 14 15 25 0 11 6 21 13 24 6 2
9 8 5 12 -9 10 -50 -24 -43 -35 3 -5 1 -10 -4 -12 -14 -5 -26 -98 -12 -98 6 0
11 4 11 10 0 5 7 7 15 4 8 -4 15 -1 15 5 0 17 27 13 34 -5 5 -14 4 -15 -9 -4
-13 10 -15 9 -15 -9 0 -23 -14 -28 -26 -10 -5 8 -10 6 -16 -5 -29 -51 -38 23
-14 114 10 39 11 58 4 65 -7 7 -9 5 -6 -5 3 -8 1 -23 -4 -33 -5 -10 -11 -28
-14 -40 -2 -12 -10 -55 -17 -94 -8 -40 -10 -73 -6 -73 4 0 11 9 14 21 4 12 13
19 23 17 13 -3 17 -14 15 -46 -1 -24 3 -42 9 -42 5 0 8 -7 5 -14 -4 -11 -1
-13 10 -9 12 5 14 1 8 -16 l-7 -23 21 21 c22 22 28 37 11 26 -16 -10 -39 20
-33 44 3 11 10 21 15 21 6 0 8 7 4 15 -6 18 -1 19 25 5 10 -6 19 -17 19 -25 0
-8 5 -15 11 -15 6 0 8 8 5 18 -12 36 -15 123 -5 116 6 -3 8 -13 5 -21 -7 -16
19 -83 31 -83 5 0 9 15 10 33 2 26 0 28 -7 12 -7 -17 -9 -17 -9 -2 -1 9 -5 17
-11 17 -5 0 -7 13 -3 31 7 34 -7 50 -40 44 -15 -3 -16 -1 -8 9 6 7 9 21 5 30
-8 22 12 21 25 -1 9 -15 10 -15 11 -3 0 9 -6 22 -12 28 -10 10 -10 15 2 22 8
5 18 6 22 4 4 -3 8 0 8 5 0 6 -5 11 -10 11 -8 0 -8 4 -1 13 59 71 97 137 80
137 -7 0 -9 10 -5 30 6 33 2 39 -9 13z"/>
<path d="M9010 3336 c0 -2 6 -21 13 -42 7 -22 12 -54 11 -71 -1 -18 1 -33 6
-33 12 0 18 -60 7 -67 -5 -3 -4 -9 3 -13 7 -4 9 -13 6 -19 -9 -13 -16 -14 -35
-2 -12 8 -12 12 3 26 18 19 18 46 -1 52 -7 3 -10 -3 -6 -15 2 -11 0 -23 -6
-26 -7 -5 -11 3 -11 19 0 15 -4 24 -10 20 -5 -3 -10 -14 -10 -24 0 -10 -7 -18
-15 -18 -10 0 -13 7 -9 26 3 14 8 35 10 46 4 16 2 15 -10 -4 -7 -14 -12 -30
-9 -37 2 -7 0 -15 -6 -18 -6 -4 -8 -13 -5 -21 3 -7 1 -22 -5 -32 -6 -11 -11
-13 -11 -5 0 7 -4 11 -9 7 -5 -3 -12 -1 -15 4 -3 5 1 12 10 15 13 5 14 9 4 21
-7 8 -8 20 -4 27 12 19 14 38 3 38 -5 0 -9 -7 -9 -15 0 -25 -36 -54 -59 -48
-12 3 -21 1 -21 -5 0 -5 11 -12 25 -14 14 -3 25 -1 25 3 0 5 5 9 11 9 5 0 7
-5 4 -10 -8 -13 4 -50 16 -50 6 0 17 -7 25 -15 9 -8 20 -15 25 -15 13 0 11 28
-2 32 -9 3 -9 10 0 26 7 13 17 20 23 16 5 -4 6 -9 2 -13 -13 -9 -14 -85 -2
-92 6 -4 7 -12 3 -19 -6 -9 -9 -9 -16 1 -8 13 -14 -53 -9 -108 2 -24 -23 -32
-36 -12 -4 8 -9 7 -15 -2 -6 -10 -9 -7 -9 10 0 23 1 23 25 7 22 -14 25 -15 25
-1 0 8 -6 15 -14 15 -8 0 -17 7 -20 16 -9 24 -7 28 9 14 8 -7 15 -9 16 -4 0 5
2 23 4 39 1 17 6 37 9 46 10 23 -9 33 -24 14 -8 -9 -10 -27 -6 -47 3 -17 3
-29 0 -25 -11 10 -31 -17 -39 -51 -3 -18 -10 -30 -15 -27 -4 3 -4 21 0 42 7
30 5 42 -12 65 -20 28 -19 58 2 58 6 0 9 -8 6 -18 -4 -11 2 -28 13 -40 22 -27
30 -28 29 -4 0 9 3 31 7 47 4 17 4 27 0 23 -4 -4 -14 0 -21 10 -11 14 -15 15
-23 3 -7 -11 -11 -10 -20 5 -11 18 -12 17 -6 -3 4 -16 1 -23 -15 -28 -11 -4
-18 -10 -15 -15 3 -5 -10 -7 -30 -6 -26 3 -35 0 -35 -11 0 -9 6 -13 15 -9 17
6 17 7 19 -93 1 -49 5 -76 13 -78 9 -3 11 4 7 25 -4 17 -1 32 5 36 7 5 11 -3
11 -22 0 -35 9 -45 27 -31 9 9 17 8 27 0 8 -6 20 -10 27 -9 7 2 15 -6 17 -17
3 -16 1 -17 -8 -8 -20 18 -35 -5 -37 -55 -1 -49 7 -47 23 6 l12 37 1 -43 c1
-50 -22 -68 -46 -36 -7 10 -10 20 -4 22 12 4 2 42 -11 42 -5 0 -12 -9 -15 -20
-6 -22 -33 -28 -33 -7 0 18 21 37 41 37 9 0 19 6 22 13 4 10 -7 14 -41 15 -34
1 -43 -1 -32 -8 12 -7 13 -13 4 -27 -9 -14 -8 -25 3 -47 11 -22 17 -26 23 -15
5 7 12 10 15 7 4 -4 0 -17 -9 -30 -9 -12 -16 -30 -16 -40 0 -9 -4 -20 -10 -23
-5 -3 -7 0 -4 9 9 24 -5 39 -23 24 -14 -11 -15 -10 -9 10 5 13 3 22 -3 22 -6
0 -11 -11 -11 -24 0 -14 -4 -28 -10 -31 -5 -3 -10 1 -10 10 0 28 -59 10 -60
-18 0 -5 7 -1 16 7 19 20 34 20 34 2 0 -8 -13 -20 -30 -28 -25 -11 -30 -19
-30 -48 -1 -42 -22 -73 -46 -68 -14 2 -18 14 -19 48 -1 31 -9 57 -27 82 -27
40 -42 41 -28 2 5 -13 7 -31 4 -39 -4 -8 -1 -15 5 -15 6 0 11 5 11 10 0 6 5
10 10 10 6 0 10 -15 10 -34 0 -19 -4 -38 -10 -41 -6 -4 -10 6 -10 22 -1 27 -1
27 -15 9 -14 -18 -15 -17 -15 23 0 30 -4 41 -12 39 -7 -3 -13 -10 -13 -15 0
-6 -3 -14 -7 -18 -10 -10 2 -36 14 -29 6 4 5 -2 -1 -14 -12 -22 3 -72 21 -72
5 0 7 -4 4 -8 -8 -13 23 -52 40 -52 8 0 13 -4 9 -9 -3 -6 -13 -10 -23 -10 -31
1 -54 -7 -63 -22 -14 -23 -10 -35 5 -14 12 17 15 17 29 3 9 -9 13 -18 10 -22
-4 -3 1 -6 10 -6 10 0 17 -4 17 -10 0 -5 7 -10 16 -10 13 0 14 -3 5 -14 -6 -7
-9 -20 -5 -29 3 -8 1 -18 -5 -21 -5 -4 -8 -23 -5 -44 5 -43 -12 -92 -33 -92
-16 0 -15 34 2 75 8 18 7 19 -9 6 -9 -8 -25 -28 -33 -45 l-17 -31 -7 25 c-7
24 -7 24 -8 2 -1 -12 6 -25 14 -28 10 -4 15 -20 15 -45 0 -30 -3 -37 -15 -33
-8 4 -15 1 -15 -5 0 -6 4 -11 10 -11 5 0 9 -8 8 -17 -3 -38 2 -64 12 -58 6 3
10 1 10 -4 0 -6 -4 -11 -10 -11 -5 0 -7 -7 -4 -15 4 -8 11 -12 18 -8 6 4 4 -2
-4 -13 -8 -10 -15 -21 -17 -23 -1 -2 -6 12 -12 30 -6 22 -10 27 -10 13 -1 -11
6 -29 14 -40 16 -22 20 -38 6 -29 -6 3 -14 -3 -20 -12 -5 -10 -13 -15 -17 -11
-4 4 -2 14 5 22 13 16 5 66 -11 66 -5 0 -7 -8 -3 -19 3 -10 -1 -24 -10 -31 -8
-7 -12 -16 -9 -21 9 -15 -39 -50 -49 -36 -5 7 -6 -6 -2 -27 6 -36 5 -38 -9
-26 -10 8 -14 21 -11 34 6 21 6 21 -9 2 -9 -11 -16 -23 -16 -28 0 -4 -5 -8
-11 -8 -6 0 -9 7 -6 14 4 10 1 13 -9 9 -9 -3 -13 -12 -9 -21 3 -9 3 -13 -1 -9
-4 4 -13 2 -21 -4 -21 -18 -15 5 7 29 12 12 27 22 36 22 11 0 13 7 8 28 -9 39
-24 50 -21 16 2 -22 -2 -29 -18 -29 -11 0 -19 -6 -18 -12 2 -7 -4 -13 -13 -13
-9 0 -14 -6 -11 -13 3 -8 1 -20 -4 -28 -6 -10 -9 -6 -10 16 0 26 -2 27 -9 10
-10 -22 -13 -9 -10 37 1 14 -3 29 -9 32 -6 4 -7 14 -4 23 4 10 2 14 -4 10 -5
-4 -8 -31 -5 -64 2 -32 1 -54 -4 -50 -4 4 -16 -7 -27 -25 -10 -18 -16 -25 -13
-15 4 11 0 17 -11 17 -9 0 -13 -3 -10 -7 4 -3 1 -13 -5 -21 -7 -8 -13 -19 -15
-26 -1 -6 -5 -21 -9 -33 -4 -14 -2 -23 5 -23 6 0 11 -5 11 -11 0 -8 -4 -8 -13
0 -8 6 -24 12 -38 14 -13 2 -22 8 -19 13 3 5 10 8 17 6 6 -1 14 2 18 8 3 5 -1
10 -10 10 -10 0 -15 7 -13 18 2 11 -1 18 -7 18 -5 -1 -9 -9 -8 -19 2 -9 -1
-17 -7 -17 -5 0 -13 -15 -18 -32 -6 -18 -13 -42 -17 -53 l-8 -20 16 20 c21 25
22 7 2 -22 -8 -12 -17 -37 -19 -55 -2 -18 -4 -37 -5 -42 0 -5 -8 -3 -16 4 -12
10 -15 10 -15 -3 0 -9 5 -19 10 -22 6 -3 10 -19 10 -35 0 -16 -4 -32 -10 -35
-5 -3 -10 -16 -10 -29 0 -14 -9 -27 -22 -34 l-23 -11 23 0 c25 -1 28 -11 10
-29 -10 -10 -10 -15 -1 -20 9 -6 8 -16 -4 -40 -9 -18 -18 -31 -20 -28 -3 2 0
13 6 24 17 31 14 47 -4 32 -8 -7 -13 -15 -11 -19 3 -4 1 -13 -4 -21 -6 -9 -3
-18 8 -26 15 -11 15 -14 -1 -37 -9 -15 -17 -34 -17 -44 0 -31 32 -103 46 -103
8 0 14 -5 14 -11 0 -6 -7 -9 -15 -5 -13 4 -13 2 -5 -14 15 -28 12 -37 -5 -14
-12 16 -16 17 -24 4 -12 -17 -5 -30 15 -30 18 0 18 -14 -1 -30 -9 -8 -13 -21
-9 -35 4 -16 0 -26 -13 -34 -11 -6 -13 -11 -5 -11 17 0 -21 -66 -52 -92 -19
-15 -16 -23 6 -19 4 0 5 -6 2 -14 -4 -8 -10 -13 -14 -10 -8 5 -5 -31 6 -67 6
-20 -12 -25 -19 -5 -6 17 -14 7 -22 -28 -6 -29 -6 -29 9 -11 22 27 20 10 -5
-40 -16 -33 -18 -47 -10 -63 13 -24 14 -61 2 -61 -4 0 -6 11 -3 25 2 15 0 25
-7 25 -6 0 -12 -6 -13 -12 0 -7 -2 -17 -3 -23 -2 -5 -3 -17 -4 -25 -1 -12 -4
-12 -12 3 -5 9 -7 22 -4 27 3 6 -1 10 -9 10 -9 0 -16 7 -16 16 0 13 3 14 15 4
12 -10 16 -8 23 11 21 55 24 72 13 65 -15 -10 -14 17 1 32 9 9 9 12 1 12 -7 0
-15 -5 -18 -10 -4 -6 -11 -8 -16 -5 -13 9 -11 -6 4 -24 9 -10 11 -25 6 -41 -6
-22 -7 -22 -8 -4 -1 12 -8 21 -17 21 -10 0 -14 -7 -10 -20 7 -26 -3 -47 -23
-47 -15 -1 -15 -1 1 -10 12 -8 16 -21 14 -52 l-3 -42 14 28 c18 35 28 28 12
-8 -7 -14 -19 -26 -26 -26 -8 0 -11 -5 -8 -10 4 -6 11 -8 17 -4 5 3 2 -8 -6
-25 -9 -17 -19 -31 -22 -31 -12 0 -53 38 -47 44 3 3 1 6 -5 6 -6 0 -9 7 -6 15
4 8 11 12 17 8 6 -3 7 -1 3 5 -9 15 -28 7 -44 -18 -10 -16 -9 -18 2 -14 9 3
17 -3 21 -15 3 -12 11 -21 16 -21 5 0 9 -9 9 -20 0 -13 5 -18 15 -14 11 5 13
2 9 -10 -4 -9 0 -18 8 -21 16 -6 13 -55 -2 -55 -5 0 -6 -9 -3 -20 4 -16 2 -19
-11 -14 -9 3 -16 15 -16 25 0 10 -7 19 -15 19 -8 0 -15 -6 -15 -12 0 -9 -4 -8
-10 2 -7 11 -10 12 -10 2 0 -8 -6 -12 -12 -9 -7 2 -12 13 -10 23 2 15 1 16 -7
5 -8 -13 -12 -13 -28 -1 -10 8 -15 11 -11 6 8 -10 -26 -81 -44 -92 -9 -6 -9
-3 1 9 7 9 10 17 7 17 -4 0 0 7 9 16 9 9 13 19 9 23 -4 3 -9 0 -11 -6 -7 -20
-23 -15 -23 7 0 11 -4 20 -10 20 -5 0 -10 7 -10 15 0 9 6 12 18 9 9 -3 5 2
-11 11 -30 17 -47 13 -47 -13 0 -14 2 -13 13 3 13 17 14 15 21 -15 3 -19 2
-38 -4 -44 -7 -7 -10 -4 -10 9 0 15 -3 16 -12 7 -21 -21 -31 -13 -24 19 6 31
-6 59 -25 59 -5 0 -9 -9 -9 -21 0 -13 4 -18 12 -13 7 5 8 3 4 -5 -6 -9 -12 -8
-26 4 -19 17 -17 43 4 57 7 5 7 8 -2 8 -7 0 -16 -8 -19 -18 -4 -9 -11 -20 -17
-24 -8 -6 -6 -11 3 -17 16 -10 26 -51 12 -51 -5 0 -16 10 -25 22 -12 16 -16
18 -12 6 6 -19 -2 -22 -22 -9 -10 6 -10 10 3 21 8 7 15 21 15 32 0 12 4 17 13
12 6 -4 9 -3 4 1 -4 5 -1 15 7 24 13 14 12 16 -10 17 -13 1 -22 -2 -19 -6 3
-4 0 -21 -6 -38 -7 -22 -15 -29 -26 -25 -12 5 -14 1 -9 -18 6 -21 6 -22 -5 -5
-9 15 -13 16 -20 5 -4 -7 -11 -10 -15 -6 -5 4 4 19 19 33 32 29 33 34 8 27
-10 -2 -24 -16 -31 -29 -15 -27 -30 -32 -30 -9 0 23 -18 18 -24 -7 -2 -13 -4
-6 -2 15 1 20 -1 37 -5 37 -11 0 -21 -38 -14 -49 3 -5 1 -12 -5 -16 -5 -3 -23
8 -40 26 -24 27 -28 29 -23 11 3 -12 9 -22 14 -22 12 0 12 -37 0 -44 -5 -4 -7
3 -4 15 5 19 2 20 -37 16 -29 -3 -43 0 -47 9 -3 8 -9 11 -14 8 -5 -3 -9 4 -9
14 0 11 -9 22 -19 25 -11 2 -21 15 -24 28 -3 19 -5 17 -6 -8 -1 -35 -30 -48
-33 -15 0 9 -2 24 -2 32 -1 8 -9 14 -18 12 -8 -1 -19 5 -22 14 -6 15 -8 15
-28 -2 -19 -17 -21 -17 -15 -2 3 10 1 21 -6 25 -7 5 -18 19 -24 33 l-12 25 0
-32 c-1 -17 2 -33 7 -36 4 -2 1 -2 -5 -1 -7 2 -13 -3 -13 -11 0 -8 5 -15 10
-15 6 0 10 -5 10 -11 0 -8 -4 -9 -13 0 -8 6 -16 9 -18 6 -3 -2 -5 5 -5 15 0
11 4 20 8 20 4 0 8 5 8 11 0 5 -5 7 -11 3 -9 -5 -10 1 -5 21 6 25 5 27 -8 16
-9 -8 -16 -21 -17 -30 0 -11 -3 -9 -9 7 -13 32 -23 27 -18 -8 5 -36 -5 -39
-20 -5 -6 14 -17 25 -24 24 -10 0 -10 -2 0 -6 6 -2 12 -9 12 -15 0 -6 -6 -8
-12 -5 -47 19 -47 19 -41 -2 3 -11 9 -18 14 -15 5 3 9 3 9 0 0 -3 -9 -10 -19
-16 -18 -9 -20 -7 -19 20 1 17 -2 33 -5 37 -4 3 -8 -11 -8 -33 -1 -23 -4 -30
-6 -16 -2 12 -8 22 -13 22 -5 0 -15 6 -23 14 -9 9 -19 11 -28 5 -11 -7 -11 -9
4 -9 23 0 25 -24 8 -118 -4 -23 -4 -45 1 -48 4 -3 8 2 8 10 0 10 6 13 15 10
20 -8 19 13 -1 24 -17 10 -15 48 3 45 6 -1 8 9 6 25 l-5 27 15 -26 c17 -31 19
-135 3 -119 -5 5 -15 10 -20 10 -6 0 -4 -5 6 -10 10 -6 15 -19 12 -32 -4 -21
-4 -22 5 -3 9 19 10 19 10 -2 1 -13 -3 -23 -8 -23 -5 0 -7 -9 -4 -20 3 -11 0
-20 -6 -20 -13 0 -25 45 -16 59 3 6 2 11 -3 11 -15 0 -21 -25 -11 -41 5 -8 8
-23 8 -34 0 -18 -1 -18 -9 3 -5 12 -16 22 -25 22 -8 0 -15 7 -15 16 0 8 4 13
9 10 19 -12 20 27 1 62 -21 40 -28 30 -8 -13 11 -24 8 -29 -32 -65 -36 -32
-46 -37 -58 -27 -13 10 -13 12 4 15 21 4 44 22 28 22 -9 0 -24 27 -53 90 l-11
25 1 -25 c2 -44 -1 -60 -10 -60 -4 0 -7 17 -6 38 3 53 3 52 29 52 19 0 25 -7
30 -35 4 -20 11 -33 15 -31 11 7 1 59 -13 69 -8 5 -6 10 4 17 23 15 30 12 30
-15 0 -14 5 -25 11 -25 6 0 9 8 7 18 -5 17 9 39 25 38 17 -2 30 35 17 47 -10
9 -12 8 -7 -5 4 -10 2 -18 -3 -18 -6 0 -10 5 -10 11 0 5 -5 7 -11 4 -6 -4 -8
-13 -5 -21 3 -7 1 -16 -4 -19 -6 -4 -10 -1 -10 5 0 7 -6 8 -19 1 -14 -8 -22
-7 -31 4 -7 9 -15 13 -18 10 -3 -2 1 -12 9 -21 13 -16 12 -17 -8 -12 -12 3
-24 1 -27 -6 -3 -7 -9 -5 -16 7 -17 27 -31 21 -20 -9 15 -38 11 -53 -5 -24 -9
15 -14 19 -15 10 0 -13 -1 -13 -11 0 -8 12 -9 10 -4 -7 4 -14 2 -23 -5 -23 -6
0 -9 -4 -6 -8 3 -5 -1 -9 -9 -9 -8 0 -12 4 -9 9 3 4 0 8 -5 8 -6 0 -11 -6 -11
-14 0 -13 -27 -31 -41 -28 -4 1 -5 -7 -2 -17 4 -14 -1 -18 -21 -18 -19 0 -26
5 -26 18 0 11 5 19 10 19 6 0 10 7 10 15 0 8 -5 15 -11 15 -5 0 -8 -4 -4 -9 3
-5 1 -12 -4 -15 -5 -4 -12 2 -14 11 -3 10 -4 1 -2 -19 2 -20 1 -47 -2 -59 -6
-21 -7 -21 -19 -4 -13 17 -14 17 -20 1 -5 -13 -9 -14 -14 -5 -6 9 -12 8 -25
-4 -9 -10 -21 -17 -27 -17 -6 0 -9 3 -5 6 3 4 -1 13 -9 22 -11 10 -15 29 -12
57 2 35 0 41 -14 37 -12 -3 -15 -13 -14 -37 4 -40 -28 -116 -37 -91 -4 9 -1
16 5 16 13 0 1 14 -13 16 -5 1 -13 2 -19 3 -5 0 -9 9 -8 19 3 37 -2 63 -12 57
-5 -3 -10 -1 -10 4 0 6 5 11 10 11 6 0 8 11 4 26 -4 17 -2 29 7 35 10 6 11 9
2 9 -7 0 -13 8 -13 17 0 9 -10 27 -22 40 -12 13 -16 23 -10 23 7 0 15 0 19 0
4 0 8 -7 8 -15 0 -8 4 -14 10 -12 5 1 8 7 7 12 -2 6 -6 30 -8 55 -3 24 -10 51
-18 60 -7 8 -19 31 -26 50 -8 19 -20 44 -27 55 -22 34 -15 -5 12 -60 14 -27
25 -58 25 -67 0 -9 5 -20 10 -23 6 -3 10 -14 10 -23 0 -13 -2 -14 -9 -4 -7 11
-9 11 -14 -2 -4 -9 -18 -16 -32 -16 -15 0 -24 -4 -20 -10 3 -5 1 -10 -4 -10
-6 0 -11 5 -11 10 0 6 -9 20 -20 32 -11 12 -20 16 -20 10 0 -9 -5 -10 -19 -2
-18 9 -19 7 -14 -25 4 -23 2 -35 -6 -35 -6 0 -11 7 -11 15 0 18 -9 19 -33 1
-10 -8 -15 -20 -11 -30 9 -23 27 -20 19 4 -3 11 -2 20 4 20 9 0 21 -26 27 -57
1 -6 -12 -11 -33 -11 -32 0 -34 2 -29 24 6 24 -9 35 -16 12 -3 -7 -7 -8 -10
-2 -4 5 0 24 8 40 12 24 21 30 40 28 13 -1 24 2 24 7 0 5 -6 9 -14 9 -8 0 -17
6 -19 13 -4 8 -8 8 -14 2 -12 -15 -43 -15 -43 0 0 7 18 24 40 39 22 14 40 31
40 36 0 15 -3 13 -45 -20 -21 -16 -46 -30 -56 -30 -11 0 -19 -4 -19 -10 0 -5
6 -10 14 -10 11 0 14 -13 13 -55 -1 -30 -5 -55 -9 -55 -3 0 -13 -3 -21 -6 -10
-3 -18 2 -22 15 -3 12 -11 19 -16 16 -5 -4 -9 -1 -9 4 0 6 6 11 13 11 11 0 14
21 7 50 0 3 -8 -12 -18 -32 -10 -20 -26 -45 -36 -56 -14 -16 -15 -25 -7 -39 6
-10 11 -14 11 -9 0 5 8 2 18 -5 15 -13 16 -12 3 3 -8 11 -9 18 -3 18 6 0 14
-4 17 -10 8 -14 26 -13 22 1 -1 6 6 13 16 14 21 4 21 -12 1 -45 -8 -14 -13
-17 -10 -7 3 11 2 15 -4 12 -6 -3 -10 -14 -11 -23 0 -10 -3 -12 -5 -5 -3 7
-12 9 -21 6 -8 -3 -19 0 -23 8 -6 9 -11 5 -16 -15 -4 -18 -11 -25 -21 -22 -8
3 -17 6 -21 6 -3 0 4 11 17 23 25 28 19 57 -13 57 -20 -1 -20 -1 -2 -15 12 -9
16 -20 11 -32 -6 -16 -8 -16 -16 5 -5 13 -14 20 -19 17 -8 -5 -7 -11 1 -21 9
-11 8 -18 -4 -32 -11 -12 -14 -33 -12 -75 3 -50 2 -57 -11 -47 -11 10 -14 10
-14 1 0 -7 -3 -10 -8 -7 -4 2 -16 -2 -26 -10 -16 -11 47 -13 433 -14 l452 0
-6 21 c-5 15 -4 19 4 15 6 -4 11 -13 11 -21 0 -10 19 -14 80 -14 46 0 80 4 80
9 0 6 7 10 15 10 8 0 15 -4 15 -10 0 -5 4 -10 9 -10 5 0 8 8 7 18 0 9 6 17 14
17 8 0 18 5 23 10 4 6 10 5 16 -4 7 -11 9 -11 14 0 3 8 6 3 6 -11 1 -20 6 -25
25 -25 13 0 22 5 19 10 -3 6 0 4 8 -2 20 -20 205 -18 213 2 3 8 11 15 17 15 9
0 9 -3 0 -14 -9 -11 7 -14 99 -15 l110 -1 0 25 c0 14 5 25 10 25 6 0 8 -11 4
-25 l-6 -24 1091 -1 1091 0 0 1590 c-1 1020 -4 1590 -10 1590 -6 0 -5 10 2 21
10 17 10 23 1 26 -7 3 -13 17 -13 31 0 20 3 23 9 13 6 -9 9 -2 9 24 l0 39 -19
-40 c-10 -21 -18 -47 -19 -56 0 -35 -20 -17 -21 20 -1 33 -2 34 -9 12 -5 -17
-2 -35 11 -58 25 -43 24 -54 -1 -22 -15 20 -20 21 -20 8 0 -9 -4 -19 -10 -23
-10 -6 -32 64 -33 111 -1 19 -8 36 -19 43 -10 6 -18 9 -18 7z m-364 -898 c4
-14 1 -25 -10 -33 -20 -15 -21 -61 0 -69 9 -4 13 -13 10 -23 -3 -10 -1 -25 4
-33 7 -12 11 -10 18 10 l9 24 12 -21 c13 -26 14 -36 2 -29 -12 8 -21 -18 -12
-33 5 -8 12 -3 19 14 7 15 9 31 6 37 -4 6 -1 14 5 18 7 4 12 30 13 58 0 29 4
52 9 52 5 0 9 -14 9 -31 0 -27 2 -29 15 -15 8 8 12 21 9 29 -3 8 -1 17 4 21
11 6 10 -94 -1 -112 -10 -15 1 -54 14 -47 5 4 9 1 9 -4 0 -6 -7 -11 -15 -11
-8 0 -15 3 -15 8 0 4 -9 13 -20 20 -18 11 -20 10 -20 -19 0 -22 4 -30 13 -26
10 4 13 -4 11 -31 -4 -69 -4 -69 -15 -49 -6 10 -8 29 -5 42 7 28 -18 55 -28
30 -3 -9 -10 -13 -16 -10 -5 3 -10 -1 -10 -9 0 -9 -6 -16 -13 -16 -13 0 -16
38 -3 58 4 7 2 12 -3 12 -6 0 -11 -3 -12 -7 0 -5 -2 -27 -4 -50 -3 -40 -2 -43
20 -37 13 3 26 0 30 -7 5 -7 4 -10 -3 -5 -6 3 -16 -3 -22 -14 -6 -11 -15 -18
-21 -15 -9 6 -13 -7 -10 -32 2 -16 -21 -17 -37 -1 -7 7 -12 9 -12 4 0 -4 7
-14 15 -22 13 -14 22 -74 11 -74 -3 0 -12 7 -20 16 -15 14 -16 13 -16 -11 0
-17 -4 -24 -12 -19 -6 4 -8 3 -4 -4 3 -6 2 -13 -4 -17 -6 -3 -13 1 -16 9 -8
22 -24 20 -24 -3 0 -11 6 -18 16 -17 9 0 20 -9 24 -20 7 -19 5 -22 -15 -20
-13 0 -22 3 -20 5 3 2 -1 13 -8 25 -6 11 -12 30 -12 42 -1 16 4 20 25 17 14
-2 19 0 13 3 -7 3 -13 12 -13 20 0 8 -4 14 -10 14 -5 0 -10 5 -10 11 0 6 5 9
12 7 22 -8 68 57 70 97 1 20 7 39 15 42 7 3 13 12 13 20 0 13 -3 13 -15 3 -12
-10 -15 -10 -15 2 0 8 3 18 6 21 11 10 13 67 3 67 -5 0 -9 7 -9 15 0 8 5 15
11 15 6 0 8 7 5 15 -6 16 10 54 29 68 6 4 5 10 -4 16 -7 5 -10 14 -7 20 11 17
24 13 32 -11z m64 -294 c0 -13 -4 -24 -10 -24 -5 0 -7 -7 -4 -15 5 -11 2 -13
-12 -8 -13 5 -16 3 -11 -10 4 -10 2 -16 -5 -14 -7 1 -14 -6 -16 -17 -2 -11 0
-16 7 -12 7 5 9 1 5 -8 -3 -9 -10 -16 -15 -16 -5 0 -9 -7 -9 -16 0 -13 3 -14
14 -5 12 10 17 8 26 -8 8 -17 8 -21 -4 -21 -8 0 -17 -10 -19 -22 -4 -20 -4
-19 -6 5 -1 37 -21 35 -21 -3 0 -17 -7 -33 -17 -39 -10 -5 -14 -13 -10 -18 5
-4 14 -1 20 8 14 18 47 22 41 4 -3 -6 6 -11 21 -10 27 0 45 19 45 45 -1 12 -3
11 -14 -3 -12 -15 -14 -16 -20 -2 -3 8 -1 15 5 15 6 0 8 9 4 20 -5 15 -2 20
10 20 11 0 15 -5 11 -15 -3 -8 -1 -15 4 -15 31 0 9 -94 -31 -131 l-30 -28 -9
25 c-11 28 -18 31 -16 8 0 -9 -4 -19 -9 -21 -6 -2 -12 9 -13 24 -1 16 -9 33
-17 39 -8 6 -15 19 -15 29 0 10 -7 23 -16 29 -14 11 -14 13 0 25 13 11 16 11
16 0 0 -8 7 -6 19 7 13 14 17 30 13 52 -3 25 1 37 17 51 11 10 21 23 21 30 0
6 3 11 8 11 4 0 13 9 20 21 10 16 11 24 1 35 -10 12 -9 13 5 8 9 -3 16 -17 16
-30z m-922 -1837 c5 -22 -15 -22 -21 1 -3 12 -5 11 -6 -6 0 -12 6 -34 15 -48
19 -28 15 -38 -10 -28 -9 3 -16 17 -16 30 0 13 -5 24 -11 24 -6 0 -8 -7 -5
-16 3 -9 6 -29 6 -46 0 -24 3 -28 13 -19 19 15 28 3 21 -26 -5 -18 -3 -22 9
-17 8 3 18 1 22 -5 3 -6 2 -11 -3 -11 -5 0 -20 -10 -33 -22 -14 -13 -29 -24
-34 -26 -6 -2 -9 -10 -7 -19 2 -11 -2 -13 -17 -8 -14 4 -21 1 -24 -12 -3 -10
-3 0 0 22 3 22 13 63 23 91 12 32 15 55 9 65 -6 10 -9 7 -9 -13 0 -34 -16 -45
-25 -17 -5 16 -2 27 13 38 12 9 24 28 27 43 4 16 11 25 16 22 5 -3 9 2 9 11 0
22 34 15 38 -8z"/>
<path d="M72 3091 c-8 -5 -17 -45 -22 -102 -6 -52 -12 -115 -15 -141 -4 -38
-1 -49 13 -57 13 -8 14 -13 5 -19 -7 -4 -12 -21 -11 -37 3 -61 -5 -164 -12
-160 -4 3 -7 41 -5 85 1 44 -1 77 -5 75 -5 -3 -11 7 -13 22 -2 16 -4 5 -3 -24
0 -28 4 -49 8 -47 4 3 8 0 8 -5 0 -6 -4 -11 -10 -11 -6 0 -9 -484 -10 -1335
l0 -1335 2315 0 c1444 1 2317 4 2320 10 3 6 -1 7 -9 4 -10 -4 -16 -1 -16 7 0
9 12 14 35 14 24 0 35 -5 35 -14 0 -12 3 -12 12 -3 7 7 20 12 30 12 31 0 19
16 -14 18 -18 2 -36 8 -40 15 -6 9 -8 9 -8 -1 0 -8 -9 -11 -25 -8 -14 3 -25 0
-25 -6 0 -5 -7 -8 -15 -4 -8 3 -15 1 -15 -4 0 -5 -9 -2 -19 7 -11 9 -17 23
-13 31 3 9 -3 7 -16 -6 -24 -24 -42 -28 -42 -11 0 6 -6 9 -14 6 -8 -3 -17 1
-20 9 -3 7 -2 13 2 11 4 -1 8 3 10 8 1 6 -2 10 -8 9 -5 -1 -17 -2 -25 -2 -8
-1 -15 -9 -15 -18 0 -8 -5 -12 -10 -9 -7 4 -5 14 5 28 18 25 20 49 2 27 -15
-19 -29 -19 -50 0 -42 38 -45 40 -51 25 -3 -8 -2 -15 3 -15 4 0 5 -15 3 -33
l-5 -32 -12 28 c-6 15 -14 24 -18 21 -4 -4 -7 5 -7 20 0 15 -4 25 -10 21 -5
-3 -6 -13 -3 -23 6 -16 6 -16 -11 1 -19 19 -32 22 -40 8 -8 -13 -55 11 -49 25
2 6 -3 14 -12 18 -9 3 -13 11 -9 17 4 8 3 9 -4 5 -8 -5 -8 -15 -2 -32 13 -33
13 -34 -5 -27 -10 3 -15 18 -15 42 0 20 -3 65 -8 101 l-9 65 -2 -56 c0 -31 -4
-72 -8 -90 -7 -33 -7 -33 -14 -9 -6 23 -7 22 -8 -8 -1 -41 -21 -33 -21 9 0 23
4 29 22 29 36 0 13 10 -26 12 -20 1 -39 5 -42 10 -3 5 -15 6 -25 3 -18 -6 -19
-5 -7 14 11 18 11 23 -2 31 -8 5 -21 8 -27 5 -7 -2 -13 2 -13 9 0 8 7 16 15
20 8 3 15 10 15 15 0 7 -9 7 -26 0 -15 -5 -29 -7 -32 -4 -3 3 -2 5 3 5 4 0 -3
9 -16 20 -20 18 -21 24 -11 41 10 16 10 23 -3 35 -13 14 -15 13 -16 -13 l-1
-28 -7 25 -7 25 -8 -23 c-4 -12 -12 -19 -18 -16 -7 4 -6 9 3 14 22 14 -6 65
-37 66 -21 2 -25 -2 -21 -18 5 -16 3 -17 -9 -7 -8 7 -13 18 -10 26 3 7 -1 13
-8 13 -8 0 -16 -9 -19 -20 -3 -11 -10 -20 -16 -20 -9 0 -9 5 -1 21 15 27 2 40
-15 16 -13 -18 -14 -17 -17 5 l-5 23 -10 -25 -11 -25 -6 25 c-5 17 -14 26 -27
26 -10 0 -19 -4 -19 -8 0 -4 5 -8 10 -8 6 0 10 -7 10 -15 0 -8 5 -15 11 -15 6
0 9 -14 8 -33 -2 -18 0 -38 4 -44 4 -6 3 -14 -3 -18 -9 -6 -14 13 -11 41 1 6
-6 11 -14 11 -17 0 -20 -13 -6 -21 5 -3 9 -22 9 -41 0 -25 -4 -35 -15 -35 -13
0 -13 -3 -3 -15 15 -17 7 -19 -21 -5 -22 12 -24 5 -5 -29 13 -23 14 -23 24 -5
8 15 10 9 6 -26 -4 -30 -2 -40 4 -30 5 8 13 41 17 72 3 32 11 58 16 58 6 0 8
-8 5 -17 -2 -10 -8 -42 -11 -71 -4 -31 -13 -56 -21 -59 -8 -3 -14 -12 -14 -21
0 -30 -13 -2 -16 34 -1 19 -9 41 -18 47 -20 16 -22 36 -6 72 7 17 12 37 11 45
-2 11 0 12 9 4 9 -9 9 -17 0 -34 -11 -20 -10 -21 8 -11 17 9 19 16 12 47 -9
39 -20 56 -20 31 0 -10 -4 -17 -8 -17 -4 0 -14 -20 -21 -45 -10 -35 -18 -45
-35 -46 -21 0 -21 0 2 -9 27 -11 29 -36 3 -43 -11 -3 -22 -17 -26 -36 -4 -20
-13 -31 -23 -31 -13 0 -17 -10 -19 -38 -1 -20 1 -31 4 -24 8 19 23 14 23 -8 0
-17 -3 -19 -19 -10 -28 14 -34 13 -28 -9 3 -14 1 -18 -9 -14 -18 7 -18 12 3
35 15 17 15 18 -1 18 -9 0 -15 -4 -12 -9 6 -10 -18 -34 -26 -26 -2 3 -4 -5 -4
-18 1 -15 -4 -21 -16 -19 -18 3 -35 -36 -25 -60 3 -9 -6 -13 -29 -13 -22 -1
-34 4 -34 13 0 7 5 10 10 7 12 -7 42 20 33 29 -11 11 -36 6 -47 -9 -6 -9 -23
-17 -37 -19 -13 -1 -30 -6 -37 -10 -17 -10 -15 2 3 20 8 9 15 23 15 32 0 12
-3 13 -12 4 -7 -7 -18 -12 -26 -12 -8 0 -20 -8 -27 -17 -12 -16 -12 -14 -8 10
3 15 8 25 12 23 3 -2 6 18 6 44 0 28 -4 45 -9 40 -10 -10 -37 -2 -48 14 -4 6
-8 1 -8 -12 0 -13 -4 -20 -10 -17 -5 3 -10 15 -10 26 0 11 -7 19 -17 19 -13 0
-14 -3 -5 -12 15 -15 16 -72 1 -62 -6 3 -8 15 -6 26 4 14 0 22 -14 25 -18 5
-19 7 -4 23 11 12 14 26 9 45 -7 27 -8 27 -21 9 -8 -10 -12 -27 -9 -36 3 -14
0 -16 -11 -9 -9 4 -24 6 -34 4 -23 -6 -23 -5 -3 43 15 36 17 37 30 19 8 -10
14 -13 14 -7 0 7 9 12 20 12 14 0 20 7 20 22 0 21 -1 21 -13 3 -11 -13 -21
-16 -41 -11 -18 4 -26 12 -23 20 9 22 -5 27 -25 9 -12 -10 -18 -12 -18 -4 0 7
-4 9 -10 6 -5 -3 -10 -15 -10 -25 0 -11 -9 -24 -20 -30 -14 -7 -20 -21 -20
-42 0 -20 -4 -28 -9 -22 -14 14 -1 106 14 100 19 -7 35 15 35 48 0 22 -3 27
-9 17 -5 -8 -7 -20 -4 -27 6 -15 -13 -28 -22 -14 -10 16 -25 12 -25 -7 -1 -10
-7 -29 -15 -43 -11 -20 -14 -21 -15 -7 0 10 -7 20 -16 24 -12 4 -14 14 -10 34
7 34 -8 39 -19 7 -6 -20 -8 -20 -12 -5 -7 28 -33 21 -33 -10 0 -23 -13 -25
-16 -2 -1 5 -2 13 -3 19 0 5 -6 9 -13 7 -6 -1 -16 14 -22 33 -5 19 -14 38 -19
41 -4 3 -1 21 7 40 14 30 15 31 15 9 -2 -60 -1 -63 23 -46 25 18 33 79 13 96
-8 7 -10 2 -7 -19 2 -16 -1 -37 -7 -48 -9 -15 -11 -13 -12 17 -2 19 -3 42 -3
51 0 23 -30 16 -32 -7 -2 -55 -5 -65 -14 -59 -5 3 -7 25 -4 48 3 23 5 59 4 79
-1 39 16 60 31 37 5 -8 9 -9 9 -4 0 6 23 11 51 13 47 2 51 0 46 -18 -3 -11 -1
-18 4 -14 5 3 9 22 9 42 -1 33 -2 35 -14 20 -9 -12 -27 -18 -54 -18 -46 0 -62
13 -35 29 10 6 14 10 8 11 -18 0 -38 -17 -31 -28 3 -5 -15 -10 -46 -11 -55 -1
-82 -11 -30 -11 17 0 33 -4 36 -9 9 -14 -6 -131 -16 -131 -5 0 -8 6 -7 13 5
39 -2 57 -22 57 -14 0 -19 5 -16 13 3 8 1 20 -4 28 -6 10 -9 2 -9 -23 0 -35
-2 -38 -27 -37 -17 1 -21 3 -10 6 9 2 17 9 17 14 0 6 -4 7 -10 4 -6 -3 -10 4
-10 17 -1 20 -2 21 -13 7 -10 -14 -14 -14 -25 -3 -13 15 -16 35 -4 33 4 -1 24
-1 45 0 43 1 51 21 8 21 -20 0 -31 6 -34 18 -4 15 -5 15 -6 -2 -1 -13 -6 -17
-22 -13 -17 5 -20 1 -17 -26 3 -28 0 -32 -22 -32 -19 0 -25 -6 -27 -27 -1 -21
2 -25 18 -21 10 3 19 0 19 -6 0 -6 -8 -8 -17 -4 -16 6 -16 5 -4 -10 9 -12 10
-17 2 -17 -6 0 -14 6 -17 14 -3 8 -11 14 -17 12 -7 -1 -9 -1 -5 1 11 7 10 53
-1 53 -6 0 -9 9 -8 19 1 21 53 35 61 17 2 -6 5 -3 5 7 1 16 -5 18 -41 15 -36
-2 -43 0 -42 14 1 10 -4 18 -11 18 -7 0 -15 7 -19 15 -3 8 -1 15 3 15 5 0 12
7 15 15 5 14 1 13 -24 -2 -17 -9 -30 -23 -30 -30 0 -20 -28 -15 -39 6 -8 15
-7 20 5 25 8 3 12 11 8 17 -4 8 -9 7 -15 -2 -6 -10 -12 -9 -28 5 -27 24 -27
13 0 -30 11 -19 18 -40 16 -47 -3 -7 -6 -5 -6 6 -1 9 -5 17 -11 17 -5 0 -10 7
-10 16 0 10 -6 14 -14 11 -12 -5 -12 0 -5 26 5 18 8 52 7 77 -1 38 -2 40 -5
12 -3 -25 -7 -31 -17 -23 -8 7 -15 4 -25 -10 -11 -19 -10 -20 8 -14 23 7 39
-13 16 -21 -10 -4 -14 -13 -10 -28 4 -13 3 -17 -2 -9 -7 10 -13 10 -29 -2 -16
-12 -16 -14 -2 -9 11 4 20 0 24 -11 9 -22 -32 -50 -73 -50 -31 0 -32 1 -17 23
9 13 13 26 11 29 -9 8 -47 -36 -48 -54 0 -11 -3 -13 -6 -5 -6 14 -39 16 -48 2
-3 -5 0 -10 8 -10 8 0 17 -10 20 -23 6 -21 6 -21 -8 -3 -8 11 -16 16 -16 10
-1 -5 -2 -13 -4 -19 -1 -5 -3 -19 -4 -30 -2 -12 -5 -15 -8 -7 -6 16 -33 -3
-33 -24 0 -12 -4 -12 -20 -2 -22 14 -27 29 -8 26 7 -2 14 8 15 22 1 14 0 19
-3 13 -3 -7 -12 -13 -20 -13 -9 0 -12 5 -8 12 4 6 3 8 -4 5 -5 -4 -8 -17 -5
-28 4 -15 2 -20 -7 -17 -17 5 -33 48 -18 48 7 0 6 5 -2 15 -7 8 -18 15 -24 15
-6 0 -4 -5 4 -10 13 -9 13 -12 -3 -24 -15 -12 -16 -14 -2 -20 8 -3 15 -12 15
-20 0 -8 9 -18 20 -21 23 -7 26 -21 6 -28 -10 -4 -13 -1 -9 9 6 17 -1 18 -27
4 -17 -9 -18 -8 -13 7 6 16 5 16 -10 4 -23 -18 -35 -6 -19 20 13 20 4 51 -14
51 -5 -1 -8 6 -6 14 2 8 -2 14 -8 14 -5 0 -10 9 -10 20 0 11 -4 20 -10 20 -6
0 -6 -10 1 -27 8 -22 7 -30 -5 -39 -9 -6 -16 -17 -16 -25 0 -12 -2 -11 -9 0
-6 10 -8 0 -4 -27 4 -30 2 -42 -7 -42 -7 0 -10 6 -7 14 3 8 -1 20 -9 27 -18
15 -11 58 13 77 16 11 15 12 0 12 -10 0 -20 -7 -23 -15 -11 -26 -24 -16 -18
14 5 26 3 29 -25 33 -18 3 -34 1 -37 -4 -9 -14 -40 9 -41 31 -1 12 2 19 8 16
5 -4 9 -13 9 -21 0 -8 7 -14 15 -14 19 0 19 14 1 29 -11 9 -14 28 -10 72 3 46
1 59 -10 59 -11 0 -13 -9 -9 -38 5 -41 -18 -112 -37 -112 -6 0 -8 5 -4 12 5 7
3 8 -5 4 -7 -5 -10 -14 -7 -22 3 -8 4 -14 3 -14 -1 0 -16 -4 -34 -9 -31 -9
-32 -9 -21 15 10 21 8 27 -11 40 -15 11 -20 22 -16 35 4 11 2 19 -4 19 -6 0
-11 5 -11 10 0 6 7 10 15 10 9 0 15 -9 15 -25 0 -14 5 -25 11 -25 6 0 7 8 3
23 -5 12 -7 35 -6 50 1 24 -1 27 -12 17 -23 -18 -30 8 -8 28 11 9 23 33 26 52
4 25 3 31 -4 20 -5 -8 -10 -23 -10 -33 0 -11 -5 -15 -11 -11 -6 4 -9 20 -6 39
3 17 1 38 -4 46 -6 10 -9 5 -9 -18 0 -31 -9 -41 -22 -27 -3 3 -2 21 4 41 5 20
6 39 1 44 -12 12 -66 -4 -71 -22 -5 -12 -3 -12 11 0 11 9 17 10 17 2 0 -6 5
-11 10 -11 6 0 10 8 10 17 0 12 3 14 11 6 17 -17 -18 -52 -49 -47 -20 4 -23 2
-18 -12 7 -19 -10 -35 -30 -27 -11 4 -10 8 2 20 10 10 13 28 10 54 -4 36 -2
39 15 34 14 -5 22 0 28 17 9 21 10 21 11 3 1 -15 3 -16 7 -5 10 26 31 42 35
28 3 -7 7 -2 10 10 4 12 2 20 -3 16 -5 -3 -9 0 -9 7 0 7 -9 2 -20 -11 -11 -13
-20 -20 -20 -15 0 4 -7 2 -15 -5 -9 -7 -19 -10 -23 -6 -4 4 1 13 10 20 16 12
16 14 -3 29 -21 18 -25 37 -8 37 5 0 8 -4 4 -9 -3 -5 -1 -12 5 -16 6 -3 10 4
10 17 0 13 5 29 12 36 9 9 8 12 -5 12 -9 0 -16 3 -16 8 4 22 -3 32 -21 32 -23
0 -28 -34 -6 -47 12 -7 12 -10 0 -21 -12 -11 -14 -10 -14 5 0 35 -20 -3 -25
-47 -2 -23 -9 -48 -15 -54 -9 -8 -10 1 -6 37 4 41 3 47 -10 36 -11 -9 -14 -8
-14 5 0 9 8 16 19 16 17 0 31 18 31 39 0 4 -9 17 -21 30 -26 27 -34 77 -13 85
8 3 14 0 14 -7 0 -7 6 -3 12 8 6 11 16 23 22 27 6 5 1 8 -11 8 -17 0 -21 -4
-16 -17 5 -15 3 -16 -7 -6 -11 10 -9 17 12 38 l26 25 17 -42 c16 -40 16 -43
-1 -55 -16 -12 -37 -17 -56 -14 -12 2 -10 -17 2 -24 6 -3 17 1 26 9 19 20 25
20 18 2 -3 -8 -1 -17 5 -21 7 -4 14 6 17 24 7 32 24 43 24 16 0 -8 5 -15 10
-15 7 0 7 6 2 18 -5 9 -18 35 -28 57 -22 49 -28 53 -68 50 -29 -3 -31 -5 -29
-39 2 -27 -2 -36 -13 -36 -12 0 -14 8 -10 32 3 18 0 35 -6 39 -6 4 -8 18 -4
35 6 22 9 25 18 13 8 -11 9 -11 4 4 -3 10 0 27 6 37 9 14 9 23 2 30 -7 7 -14
-1 -23 -30 -6 -22 -17 -40 -23 -40 -7 0 -7 4 1 13 6 8 8 17 4 20 -12 13 -23 7
-23 -13 0 -14 -5 -18 -17 -14 -16 5 -16 4 0 -9 12 -10 17 -25 15 -44 l-4 -28
-11 25 c-9 18 -12 20 -12 8 -1 -10 -6 -18 -12 -18 -6 0 -9 -6 -6 -12 2 -7 12
-12 21 -10 22 4 31 -24 17 -54 -6 -15 -7 -23 -1 -19 6 3 7 -1 4 -9 -3 -9 -10
-13 -15 -10 -13 8 -11 38 3 52 9 9 9 15 -1 25 -11 10 -13 9 -8 -5 9 -25 -5
-22 -25 6 -17 23 -15 66 3 66 5 0 9 12 8 28 0 24 -1 25 -9 7 -9 -20 -9 -20 -9
1 -1 30 19 47 37 31 13 -11 14 -9 1 11 -12 20 -15 21 -26 7 -6 -9 -15 -15 -20
-13 -4 2 -11 -28 -14 -65 -3 -37 -10 -72 -15 -77 -5 -5 -24 -3 -46 4 -43 15
-53 11 -55 -28 0 -16 -5 -31 -11 -35 -5 -3 -12 -13 -16 -21 -3 -8 -4 0 -1 18
3 20 1 31 -5 27 -6 -3 -10 4 -10 17 0 24 -16 48 -32 48 -4 0 -8 -9 -8 -20 0
-11 5 -20 11 -20 5 0 7 5 3 12 -4 6 -3 8 4 5 7 -5 7 -14 -1 -31 -8 -16 -14
-21 -19 -13 -13 20 -9 1 6 -28 12 -23 12 -30 -1 -56 -16 -32 -38 -40 -28 -10
4 13 0 20 -14 24 -15 3 -19 13 -19 36 1 34 -11 57 -13 25 -1 -10 -1 -22 -1
-25 1 -4 -9 -6 -22 -5 -13 0 -22 6 -19 12 2 6 -2 18 -10 25 -7 8 -12 20 -9 27
2 6 -1 12 -6 12 -6 0 -12 8 -14 18 -3 9 -4 -13 -4 -51 1 -37 -2 -67 -6 -67
-20 0 -39 35 -34 61 3 16 1 31 -4 34 -6 3 -10 -2 -10 -12 0 -15 -2 -16 -10 -3
-8 12 -10 12 -10 -5 0 -15 -2 -17 -9 -6 -6 9 -11 10 -15 2 -11 -17 4 -32 25
-26 21 7 25 -6 9 -36 -13 -23 -36 -25 -48 -3 -6 11 -17 15 -31 11 -11 -3 -21
-1 -21 4 0 5 -7 9 -15 9 -9 0 -12 -6 -9 -15 4 -8 1 -15 -5 -15 -7 0 -17 14
-23 31 -6 17 -13 27 -17 22 -3 -4 -12 -9 -20 -11 -11 -2 -12 0 -3 11 7 8 8 18
4 22 -4 5 -2 5 4 2 7 -4 15 0 18 9 9 23 8 24 -11 17 -15 -6 -16 -4 -6 8 8 10
9 25 4 45 -5 16 -10 23 -10 16 -1 -7 -6 -10 -12 -6 -8 4 -7 10 1 18 8 8 15 6
26 -8 10 -15 14 -16 14 -5 0 21 -20 38 -36 32 -17 -6 -20 42 -4 52 6 3 10 0
10 -7 0 -8 6 -7 17 5 13 13 14 20 5 29 -9 9 -12 9 -12 0 0 -7 -5 -12 -11 -12
-7 0 -18 -8 -25 -17 -12 -17 -13 -17 -14 -1 0 9 9 20 20 23 11 4 18 11 15 16
-4 5 -3 9 2 9 12 0 34 53 26 60 -5 3 -7 4 -6 1 5 -10 -19 -41 -32 -41 -8 0
-15 -7 -15 -16 0 -8 -4 -13 -9 -10 -10 7 -2 56 10 56 5 0 9 -4 9 -10 0 -5 5
-10 11 -10 6 0 1 13 -11 30 -17 23 -20 37 -14 67 4 22 3 34 -2 30 -9 -9 -10
-13 -13 -42 0 -8 -5 -15 -10 -15 -6 0 -8 10 -5 23 16 70 16 107 0 113 -9 3
-16 13 -16 22 0 12 3 13 12 4 8 -8 15 -8 24 -1 10 8 12 3 7 -25 -4 -25 -2 -36
7 -36 7 0 10 -8 8 -18 -3 -11 0 -30 8 -43 11 -21 13 -22 19 -6 4 9 2 23 -4 30
-7 10 -5 24 10 55 12 23 25 42 30 42 5 0 9 16 9 35 0 19 5 35 10 35 6 0 10 -5
10 -12 0 -6 3 -8 7 -5 3 4 -2 16 -12 27 -18 19 -14 57 5 45 5 -3 10 1 10 9 0
20 -22 11 -39 -16 -11 -17 -11 -22 0 -29 11 -6 11 -11 1 -21 -6 -6 -12 -24
-12 -39 0 -15 -5 -31 -11 -34 -16 -10 -24 4 -11 17 17 17 15 28 -5 21 -16 -6
-16 -5 0 17 23 34 22 71 -3 77 -14 4 -20 14 -20 34 0 16 4 29 9 29 5 0 8 11 7
25 l-1 25 -16 -22 c-10 -13 -22 -18 -30 -14 -8 4 -7 1 2 -6 16 -13 16 -17 1
-48 -8 -19 -15 -38 -14 -41 1 -4 -7 -5 -17 -2 -16 4 -17 8 -7 29 6 13 18 24
26 25 13 0 13 1 0 7 -8 4 -15 13 -16 20 -2 28 -5 32 -18 32 -7 0 -19 6 -25 14
-9 11 -5 15 25 20 26 5 34 11 30 22 -3 9 -6 18 -6 20 0 2 -4 4 -10 4 -5 0 -10
-7 -10 -15 0 -8 -4 -15 -10 -15 -11 0 -13 11 -4 34 3 9 14 16 24 16 22 0 32
50 15 74 -17 23 -25 9 -15 -25 7 -22 5 -29 -6 -29 -8 0 -14 10 -14 25 0 14 -4
25 -10 25 -5 0 -7 -13 -4 -29 4 -16 1 -32 -5 -35 -7 -5 -11 5 -11 29 0 30 -3
36 -16 31 -13 -5 -15 -2 -10 16 4 13 13 43 20 67 6 25 18 47 25 49 8 3 11 0 7
-7 -5 -7 -1 -9 8 -5 19 7 21 35 4 52 -19 19 -28 14 -28 -13 0 -16 -6 -25 -15
-25 -8 0 -15 -7 -15 -15 0 -8 -4 -15 -10 -15 -5 0 -10 7 -10 15 0 8 5 15 10
15 6 0 10 6 10 14 0 8 6 16 13 19 6 2 -3 7 -20 11 -33 7 -46 26 -19 26 7 0 19
7 26 15 10 12 10 15 -4 15 -18 0 -22 15 -6 25 18 11 11 42 -11 48 -13 3 -19 1
-16 -6 3 -7 10 -11 16 -9 16 3 14 -14 -4 -32 -16 -16 -19 -32 -7 -39 4 -2 2
-2 -5 -1 -6 2 -14 -2 -17 -9 -3 -7 -3 2 0 20 3 17 0 34 -5 38 -6 3 -11 1 -11
-4 0 -6 -5 -11 -11 -11 -8 0 -8 5 1 15 10 12 10 18 -1 31 -11 14 -14 14 -24 1
-9 -12 -11 -9 -12 20 -1 34 -1 34 14 13 26 -38 37 -8 14 41 -14 31 -19 59 -17
93 2 27 0 43 -4 36 -6 -9 -10 -8 -18 5 -8 15 -10 12 -14 -19 -2 -21 0 -36 7
-36 5 0 3 -4 -5 -9 -8 -6 -17 -8 -21 -5 -12 7 -20 -28 -8 -42 6 -7 8 -18 4
-24 -3 -6 3 -10 14 -10 12 0 21 -6 21 -12 0 -25 -13 -58 -22 -58 -5 0 -5 7 1
18 11 20 -2 52 -13 33 -4 -6 -5 -11 -1 -11 3 0 1 -8 -4 -18 -7 -13 -7 -22 0
-29 6 -6 4 -14 -6 -23 -9 -7 -15 -9 -14 -4 6 31 -3 74 -15 74 -9 0 -12 8 -9
24 4 18 10 23 22 18 14 -5 14 -4 2 11 -7 9 -19 17 -25 17 -7 0 -12 10 -13 23
0 12 1 16 4 10 12 -32 24 -8 21 42 -2 39 -7 54 -15 50 -7 -2 -13 2 -13 11 0 8
6 17 14 20 16 6 10 34 -8 46 -8 5 -7 13 1 28 16 25 16 47 1 53 -10 3 -10 7 -1
19 14 17 20 68 10 85 -4 6 -2 15 4 19 9 5 7 11 -5 19 -15 12 -15 14 -1 29 19
19 17 50 -3 37z"/>
</g>
</svg>
